<?xml version="1.0" standalone="no"?>
<!DOCTYPE svg PUBLIC "-//W3C//DTD SVG 1.1//EN" "http://www.w3.org/Graphics/SVG/1.1/DTD/svg11.dtd" >
<!--
2013-9-30: Created.
-->
<svg>
<metadata>
Created by iconfont
</metadata>
<defs>

<font id="iconfont" horiz-adv-x="1024" >
  <font-face
    font-family="iconfont"
    font-weight="500"
    font-stretch="normal"
    units-per-em="1024"
    ascent="896"
    descent="-128"
  />
    <missing-glyph />
    
    <glyph glyph-name="x" unicode="x" horiz-adv-x="1001"
d="M281 543q-27 -1 -53 -1h-83q-18 0 -36.5 -6t-32.5 -18.5t-23 -32t-9 -45.5v-76h912v41q0 16 -0.5 30t-0.5 18q0 13 -5 29t-17 29.5t-31.5 22.5t-49.5 9h-133v-97h-438v97zM955 310v-52q0 -23 0.5 -52t0.5 -58t-10.5 -47.5t-26 -30t-33 -16t-31.5 -4.5q-14 -1 -29.5 -0.5
t-29.5 0.5h-32l-45 128h-439l-44 -128h-29h-34q-20 0 -45 1q-25 0 -41 9.5t-25.5 23t-13.5 29.5t-4 30v167h911zM163 247q-12 0 -21 -8.5t-9 -21.5t9 -21.5t21 -8.5q13 0 22 8.5t9 21.5t-9 21.5t-22 8.5zM316 123q-8 -26 -14 -48q-5 -19 -10.5 -37t-7.5 -25t-3 -15t1 -14.5
t9.5 -10.5t21.5 -4h37h67h81h80h64h36q23 0 34 12t2 38q-5 13 -9.5 30.5t-9.5 34.5q-5 19 -11 39h-368zM336 498v228q0 11 2.5 23t10 21.5t20.5 15.5t34 6h188q31 0 51.5 -14.5t20.5 -52.5v-227h-327z" />
    

    
    <glyph glyph-name="yunshangchuan" unicode="&#58880;" d="M1024 202.752q0-25.6-8.704-48.128t-24.576-40.448-36.864-30.208-45.568-16.384l1.024-1.024-17.408 0-4.096 0-4.096 0-675.84 0q-5.12-1.024-16.384-1.024-39.936 0-74.752 15.36t-60.928 41.472-40.96 60.928-14.848 74.752 14.848 74.752 40.96 60.928 60.928 41.472 74.752 15.36l1.024 0q-1.024 8.192-1.024 15.36l0 16.384q0 72.704 27.648 137.216t75.776 112.128 112.128 75.264 136.704 27.648 137.216-27.648 112.64-75.264 75.776-112.128 27.648-137.216q0-37.888-8.192-74.24t-22.528-69.12q5.12 1.024 10.752 1.536t10.752 0.512q27.648 0 52.736-10.752t43.52-29.696 29.184-44.032 10.752-53.76zM665.6 324.608q20.48 0 26.624 4.608t-8.192 22.016q-14.336 18.432-31.744 48.128t-36.352 60.416-38.4 57.344-37.888 38.912q-18.432 13.312-27.136 14.336t-25.088-12.288q-18.432-15.36-35.84-38.912t-35.328-50.176-35.84-52.224-36.352-45.056q-18.432-18.432-13.312-32.768t25.6-14.336l16.384 0q9.216 0 19.968-0.512t20.992-0.512l17.408 0q14.336-1.024 18.432-9.728t4.096-24.064q0-17.408-0.512-30.72t-0.512-25.6-0.512-25.6-0.512-30.72q0-7.168 1.536-15.36t5.632-15.36 12.288-11.776 21.504-4.608l23.552 0q9.216 0 27.648-1.024 24.576 0 28.16 12.288t3.584 38.912q0 23.552 0.512 42.496t0.512 51.712q0 23.552 4.608 36.352t19.968 12.8q11.264 0 32.256 0.512t32.256 0.512z"  horiz-adv-x="1024" />

    
    <glyph glyph-name="xin" unicode="&#58881;" d="M890.88 832.512q28.672 0 52.736-10.752t41.984-29.184 28.16-43.52 10.24-53.76l0-620.544q0-28.672-10.24-53.76t-28.16-43.52-41.984-29.184-52.736-10.752l-689.152 0q-28.672 0-53.76 10.752t-43.52 29.184-29.184 43.52-10.752 53.76l0 620.544q0 28.672 10.752 53.76t29.184 43.52 43.52 29.184 53.76 10.752l689.152 0zM256 641.024q9.216 0 27.648-0.512t43.008-0.512l52.224 0 55.296 0q64.512 0 141.312 1.024l0 63.488-126.976 0 0 64.512-64.512 0 0-64.512-128 0 0-63.488zM377.856 535.552q-8.192 15.36-15.36 29.696-6.144 12.288-12.288 25.088t-9.216 20.992l-58.368-21.504 32.768-76.8zM254.976 139.264l101.376 143.36-66.56 26.624-98.304-145.408zM448.512 321.536l126.976 0 0 62.464-45.056 0-81.92 0 0 64.512q23.552 0 46.08-0.512t40.96-0.512l40.96 0 0 63.488-66.56 0q-19.456 0-40.96 1.024l68.608 65.536-68.608 32.768-20.48-98.304-257.024 0 0-63.488 35.84 0 47.104 0 53.248 0 56.32 0 0-64.512-128 0 0-62.464 40.96 0q18.432 0 40.96-0.512t46.08 0.512l0-129.024q0-16.384-2.048-27.136t-10.24-15.36-25.088-4.608-47.616 5.12q25.6-31.744 27.648-71.68 13.312 2.048 34.304 1.024t40.448 1.536 33.28 12.8 13.824 34.816l0 192.512zM568.32 210.944q-16.384 19.456-29.696 37.888-11.264 15.36-23.552 30.208t-18.432 23.04l-46.08-30.72 64.512-98.304zM896 516.096q-20.48 1.024-53.248 0.512t-63.488-1.536q-36.864-1.024-75.776-3.072l0 129.024q49.152 0 85.504 4.608t59.904 9.728q27.648 6.144 46.08 14.336-18.432 27.648-29.696 46.08-5.12 8.192-9.728 15.36t-7.68 11.264-3.584 4.608 1.536-4.608q-21.504-16.384-57.344-24.064t-69.632-10.752-57.344-3.072-21.504 0q1.024-16.384 1.536-44.032t0-77.824-1.024-129.024-0.512-196.608q0-13.312-3.072-33.28t-10.24-39.936-19.968-35.328-31.232-19.456q12.288-3.072 21.504-11.776t16.896-18.432 13.824-19.456 12.288-14.848q12.288 18.432 23.552 42.496t20.48 50.176 14.336 52.224 5.12 47.616l0 40.96 0 43.008 0 47.104 0 60.416 64.512 0 0-384 63.488 0 0 384q23.552-1.024 35.328-0.512t29.184-3.584l0 71.68z"  horiz-adv-x="1024" />

    
    <glyph glyph-name="bianji" unicode="&#58882;" d="M1024 595.251109l-602.406389-602.406389-300.748891 300.748891 602.406389 602.406389zM0 172.748891l300.748891-300.748891-300.748891 0 0 300.748891z"  horiz-adv-x="1024" />

    
    <glyph glyph-name="shangchuan" unicode="&#58883;" d="M512.454303 597.068323l422.502218-424.319432-180.812777 0 0-300.748891-484.287489 0-0.908607 300.748891-178.086957 0zM994.924579 896l0-120.84472-965.849157 0 0 120.84472 965.849157 0z"  horiz-adv-x="1024" />

    
    <glyph glyph-name="shangchuan1" unicode="&#58884;" d="M274.432 518.144001q-27.648 0-35.328 14.848t10.752 38.4q19.456 24.576 45.056 59.392t53.248 72.192 53.76 72.704 46.592 60.928q18.432 23.552 35.328 24.576t36.352-21.504q19.456-23.552 44.544-56.832t51.712-69.632 52.736-71.168 46.592-60.416q22.528-27.648 17.408-46.08t-33.792-17.408q-17.408 0-45.056-1.024t-46.08-1.024q-20.48-1.024-25.088-12.8t-4.608-32.256l0-50.176q0-27.648 0.512-56.32t0.512-56.32l0-51.2q0-10.24-1.536-21.504t-7.168-20.48-16.384-15.36-29.184-6.144q-21.504 0-39.424-0.512t-42.496-0.512q-33.792 0-45.568 15.872t-11.776 50.688l0 39.936q0 23.552-0.512 50.176t-0.512 53.248l0 48.128q0 30.72-6.144 48.64t-27.648 16.896q-15.36 0-37.376 1.024t-39.424 1.024zM961.535999-5.119998q6.144-24.576-2.56-47.104t-27.136-39.424-45.056-26.624-57.344-9.728l-694.271999 0q-36.864 0-65.024 13.312t-45.056 32.768-22.528 42.496 1.536 41.472q6.144 14.336 12.288 29.696 5.12 13.312 12.288 30.208t15.36 34.304l38.912 94.208 116.736 0-44.032-129.024 659.455999 0-44.032 129.024 111.616 0q21.504-52.224 38.912-94.208 7.168-18.432 14.336-35.84t12.8-31.232 9.216-23.552 3.584-10.752z"  horiz-adv-x="1024" />

    
    <glyph glyph-name="fasong" unicode="&#58885;" d="M0-128l106.496 474.112 588.8 36.864-588.8 39.936-106.496 473.088 1024-512z"  horiz-adv-x="1024" />

    
    <glyph glyph-name="ben" unicode="&#58886;" d="M1017.369103 23.563367q-167.666975 114.619796-255.763182 272.814061t-98.516189 359.962997l-106.094357 0 0-508.684551 233.975948 0 0-61.572618-233.975948 0 0-214.083256-93.779833 0 0 214.083256-230.186864 0 0 61.572618 230.186864 0 0 508.684551-101.358002 0q-27.47086-408.273821-355.226642-632.777058l0 67.256244q243.448659 241.554117 260.499537 565.520814l-229.239593 0 0 67.256244 425.324699 0 0 172.40333 93.779833 0 0-172.40333 433.850139 0 0-67.256244-234.923219 0q17.050879-328.703053 261.446809-565.520814l0-67.256244z"  horiz-adv-x="1024" />

    
    <glyph glyph-name="chongzhi" unicode="&#58887;" d="M512 808.96q88.064 0 165.376-33.28t134.656-91.136 90.624-135.168 33.28-165.376-33.28-164.864-90.624-134.656-134.656-91.136-165.376-33.28-164.864 33.28-134.656 91.136-91.136 134.656-33.28 164.864 33.28 165.376 91.136 135.168 134.656 91.136 164.864 33.28zM760.832 191.488q5.12 14.336 8.192 32.256t5.12 38.4q-14.336 5.12-28.16 10.752t-28.16 11.776q-1.024-12.288-3.072-27.648t-5.12-34.816q-5.12-30.72-45.056-30.72l-30.72 0q-40.96-3.072-37.888 34.816l0 138.24 77.824 2.048 35.84-35.84 46.08 40.96q-39.936 35.84-79.36 70.656t-78.336 67.584l-39.936-30.72q5.12-5.12 12.8-11.776t17.92-16.896q22.528-19.456 31.744-31.744l-241.664-6.144q55.296 46.08 131.072 121.856l257.024 0 0 56.32-216.064 0q-1.024 3.072-2.048 9.216l-4.096 14.336q-5.12 16.384-8.704 26.624t-4.608 16.384l-67.584-7.168q2.048-5.12 5.12-15.36t8.192-24.576q5.12-15.36 6.144-19.456l-237.568 0 0-56.32 184.32 0q-48.128-53.248-98.304-93.184-22.528-22.528-53.248-35.84l29.696-56.32q8.192 2.048 24.064 4.096t42.496 4.096l24.576 0q0-76.8-33.792-110.592-29.696-35.84-126.976-66.56 2.048-4.096 5.12-8.704t8.192-11.776q8.192-11.264 13.824-19.456t8.704-14.336q198.656 61.44 186.368 236.544l74.752 2.048 0-155.648q-2.048-71.68 73.728-68.608l66.56 0q72.704-3.072 84.992 51.2z"  horiz-adv-x="1024" />

    
    <glyph glyph-name="leqi" unicode="&#58888;" d="M644.843243 441.328185q11.861004 0 28.466409 7.907336t34.792278 15.419305 35.583012 10.279537 31.629344-8.698069 22.931274-40.72278 8.698069-85.399228l0-357.411583q0-22.931274-10.279537-43.094981t-28.466409-35.187645-43.490347-23.722008-55.351351-8.698069l-327.363707 0q-22.140541 0-43.094981 8.698069t-37.164479 23.722008-26.094208 35.187645-9.88417 43.094981l0 357.411583q1.581467 55.351351 11.07027 84.213127t24.512741 39.932046 32.815444 9.093436 35.187645-9.093436 32.02471-15.023938 23.326641-7.907336l21.349807 0q7.907336 0 14.628571 3.953668t11.465637 10.279537 7.116602 13.442471 2.372201 13.442471l0 219.823938-7.116602 0q-10.279537 0-17.396139 6.325869t-7.116602 15.023938 7.116602 15.023938 17.396139 6.325869l7.116602 0 0 13.442471-7.116602 0q-10.279537 0-17.396139 6.325869t-7.116602 15.023938 7.116602 15.023938 17.396139 6.325869l7.116602 0 0 6.325869q0 1.581467 0.395367 3.558301t0.395367 3.558301l-7.907336 0q-10.279537 0-17.396139 6.325869t-7.116602 15.023938 7.116602 15.023938 17.396139 6.325869l14.233205 0q7.907336 20.559073 30.443243 29.65251t69.979923 9.093436q36.373745 0 55.351351-5.139768t27.280309-16.210039 9.488803-27.675676 1.1861-39.53668l0-55.351351q0-23.722008-8.302703-33.606178t-18.582239-16.210039-18.186873-14.233205-6.325869-27.675676l0-177.915058q0-14.233205 11.465637-27.675676t24.908108-13.442471l17.396139 0zM613.2139 11.959846q0 11.861004-9.88417 20.559073t-23.326641 8.698069l-126.517375 0q-14.233205 0-24.117375-8.698069t-9.88417-20.559073l0-1.581467q0-11.861004 9.88417-20.559073t24.117375-8.698069l126.517375 0q13.442471 0 23.326641 8.698069t9.88417 20.559073l0 1.581467zM519.116602 83.916602q27.675676 0 52.188417 10.674903t42.699614 28.861776 28.861776 43.094981 10.674903 52.583784-10.674903 52.188417-28.861776 42.699614-42.699614 28.861776-52.188417 10.674903-51.79305-10.674903-42.304247-28.861776-28.861776-42.699614-10.674903-52.188417 10.674903-52.583784 28.861776-43.094981 42.304247-28.861776 51.79305-10.674903zM519.116602 312.43861q18.977606 0 35.978378-7.511969t29.65251-20.163707 20.163707-29.65251 7.511969-35.978378-7.511969-35.978378-20.163707-29.65251-29.65251-20.163707-35.978378-7.511969-35.978378 7.511969-29.257143 20.163707-19.76834 29.65251-7.511969 35.978378 7.511969 35.978378 19.76834 29.65251 29.257143 20.163707 35.978378 7.511969z"  horiz-adv-x="1024" />

    
    <glyph glyph-name="bingxiang" unicode="&#58889;" d="M327.68 782.336q23.552 0 40.96-16.896t17.408-41.472l0-794.624q0-23.552-17.408-40.448t-40.96-16.896l-135.168 0q-24.576 0-41.472 16.896t-16.896 40.448l0 794.624q0 24.576 16.896 41.472t41.472 16.896l135.168 0zM347.136 347.136q0 8.192-6.144 14.336t-14.336 6.144-13.824-6.144-5.632-14.336l0-104.448q0-8.192 5.632-14.336t13.824-6.144 14.336 6.144 6.144 14.336l0 104.448zM820.224 782.336q24.576 0 41.472-18.432t16.896-51.2l0-794.624q0-15.36-16.896-30.72t-41.472-15.36l-322.56 0q-24.576 0-41.472 16.896t-16.896 40.448l0 794.624q0 24.576 16.896 41.472t41.472 16.896l322.56 0zM519.168 347.136q0 8.192-5.632 14.336t-13.824 6.144-14.336-6.144-6.144-14.336l0-104.448q0-8.192 6.144-14.336t14.336-6.144 13.824 6.144 5.632 14.336l0 104.448zM772.096 618.496q0 17.408-9.216 28.672t-23.552 11.264l-153.6 0q-14.336 0-23.552-11.264t-9.216-28.672l0-105.472q0-17.408 9.216-29.184t23.552-11.776l153.6 0q14.336 0 23.552 11.776t9.216 29.184l0 105.472z"  horiz-adv-x="1024" />

    
    <glyph glyph-name="kafei" unicode="&#58890;" d="M193.536-19.456l473.088 0 0-52.224q0-20.48-15.36-38.4t-45.056-17.92l-351.232 0q-26.624 0-44.032 16.384t-17.408 39.936l0 52.224zM829.44 407.552q34.816 0 67.584-4.608t55.296-19.968 32.256-44.032 0.512-77.824q-10.24-51.2-30.208-77.824t-46.08-38.4-56.32-11.776-61.952 2.048q-11.264-18.432-25.6-33.28t-30.72-28.672-33.28-28.672-34.304-33.28l-473.088 0q-22.528 31.744-50.176 53.248t-51.2 49.664-39.936 72.192-16.384 119.808l0 107.52q0 20.48 7.168 30.72t16.384 15.36q11.264 5.12 24.576 7.168l697.344 0q12.288-2.048 23.552-7.168 9.216-5.12 16.896-15.36t7.68-30.72l0-6.144zM251.904 546.816q-2.048-15.36-13.312-23.04t-24.064-7.68-23.552 7.68-10.752 23.04q0 35.84 3.584 58.88t6.656 43.52q5.12 29.696 17.92 50.176t26.624 37.376 25.088 32.768 14.336 37.376q4.096 30.72 5.632 48.64t5.12 26.624 10.752 10.752 23.552 2.048 23.552-11.776 8.192-29.696-2.048-37.888-6.144-35.328q-2.048-14.336-9.728-29.184t-17.92-30.72-20.48-31.232-18.432-29.696q-9.216-15.36-14.336-38.4t-10.24-74.24zM445.44 546.816q-2.048-15.36-13.312-23.04t-24.064-7.68-23.552 7.68-10.752 23.04q0 35.84 3.584 58.88t7.68 43.52q5.12 29.696 17.92 50.176t26.112 37.376 24.576 32.768 14.336 37.376q4.096 30.72 6.144 48.64t5.632 26.624 10.752 10.752 23.552 2.048 23.04-11.776 7.68-29.696-1.536-37.888-5.632-35.328q-3.072-14.336-10.752-29.184t-17.408-30.72-20.48-31.232-18.944-29.696q-9.216-15.36-14.336-38.4t-10.24-74.24zM640 546.816q-2.048-15.36-13.312-23.04t-24.064-7.68-23.552 7.68-10.752 23.04q0 35.84 3.072 58.88t7.168 43.52q5.12 29.696 17.92 50.176t26.624 37.376 25.088 32.768 14.336 37.376q4.096 30.72 5.632 48.64t5.12 26.624 10.752 10.752 23.552 2.048 23.552-11.776 8.192-29.696-2.048-37.888-6.144-35.328q-3.072-14.336-10.752-29.184t-17.408-30.72-19.968-31.232-18.432-29.696q-5.12-8.192-8.704-16.896t-6.144-21.504-4.608-30.72-5.12-43.52z"  horiz-adv-x="1024" />

    
    <glyph glyph-name="yaopin" unicode="&#58891;" d="M304.128 524.288q-14.336 0-21.504 5.12t-10.24 12.288q-4.096 8.192-4.096 18.432l0 67.584q0 19.456 7.68 29.184t16.896 14.848q11.264 5.12 24.576 5.12l396.288 0q13.312 0 24.576-5.12 9.216-5.12 16.896-14.848t7.68-29.184l0-67.584q0-10.24-4.096-18.432-3.072-7.168-9.728-12.288t-20.992-5.12l-423.936 0zM837.632-47.104q0-22.528-8.192-40.96-7.168-15.36-22.016-27.648t-42.496-12.288l-497.664 0q-28.672 0-43.008 12.288t-21.504 27.648q-8.192 18.432-9.216 40.96l0 382.976q0 33.792 12.288 48.128t22.528 24.576l72.704 67.584 443.392 0 58.368-67.584q10.24-10.24 22.528-24.576t12.288-48.128l0-382.976zM677.888 217.088l-107.52 0 0 108.544-109.568 0 0-108.544-107.52 0 0-109.568 107.52 0 0-107.52 109.568 0 0 107.52 107.52 0 0 109.568z"  horiz-adv-x="1024" />

    
    <glyph glyph-name="xi" unicode="&#58892;" d="M441.648688-113.618399q-4.748911 1.899564-9.972712 6.173584t-12.822059 10.922494q-75.98257 57.93671-126.321023 105.425816t-74.083006 82.631045q-39.890849-46.539324-94.503321-98.30245t-125.846132-106.850489l0 70.283877q56.037145 50.338453 99.727123 100.676905t74.083006 102.57647q-106.375598 173.810129-142.467319 493.886705l84.530609 0q31.34281-260.240302 104.476034-413.155224 75.032788 151.96514 102.57647 474.891063l-301.080934 0 0 60.786056 385.611543 0 0-60.786056q-11.397386-184.257732-46.539324-322.925923t-95.927995-232.696621q33.242374-54.137581 77.882134-104.476034t100.676905-98.777341l0-70.283877zM906.092147-127.865131q-141.517537 0-226.048146 176.659475-86.430173-64.585185-215.600542-114.923637l0 54.137581q56.986928 30.393028 104.950925 61.735838t88.804629 64.585185q-23.744553 66.484749-36.091721 147.216229-11.397386 68.384313-19.945425 148.640903t-15.196514 172.385456l-145.316665 0 0 62.68562 145.316665 0q-4.748911 53.187799-7.598257 116.34831t-2.849346 134.394171l95.927995 0q0-71.233659 0.949782-134.394171t2.849346-116.34831l359.017643 0 0-62.68562-359.017643 0q5.698693-91.179084 13.771841-167.161654t16.621187-139.617972q2.849346-26.5939 7.123366-51.288235t11.872277-47.489106q54.137581 54.137581 98.777341 132.494606t81.681263 182.833059l93.078648 0q-46.539324-133.91928-109.699835-232.22173t-141.992428-163.837417q54.137581-162.412743 158.613615-162.412743 71.233659 0 71.233659 95.927995l71.233659 0q5.698693-162.412743-142.467319-157.663833zM845.306091 693.696407q-6.648475 48.438888-18.04586 92.128866t-29.443246 83.580827l75.032788 0q41.790414-72.183442 58.886492-175.709693l-86.430173 0z"  horiz-adv-x="1051" />

    
    <glyph glyph-name="taobaotese" unicode="&#58893;" d="M552.05868 774.989405q86.793806-7.511002 162.738386-45.483293t131.859821-98.06031 88.04564-138.953545 32.130399-167.328443q0-94.304808-35.885901-176.508557t-97.225754-143.96088-144.378158-97.225754-176.508557-35.468623q-94.304808 0-177.343113 35.468623t-144.795436 97.225754-97.643032 143.96088-35.885901 176.508557q0 77.613692 24.619397 147.299104t68.850856 126.435208 104.319478 98.477588 131.859821 61.757131q-8.345558 25.036675-20.446618 49.656072t-23.784841 43.814181-20.863896 31.295844-10.849226 12.101059q64.260799-10.849226 109.326813-30.04401t73.858191-38.806846 42.562347-34.634067 15.439283-17.525672zM311.706601 548.824776q-23.367563 0-39.224124-14.187449t-15.856561-35.051345q0-20.02934 15.856561-34.216789t39.224124-14.187449q22.533007 0 38.389568 14.187449t15.856561 34.216789q0 20.863896-15.856561 35.051345t-38.389568 14.187449zM356.772616 254.226569q11.683782 35.051345 12.101059 60.922575t-18.777506 45.066015q-12.518337 11.683782-20.446618 19.194784t-16.273839 14.604727-19.194784 15.022005-29.209454 21.281174l-35.051345-52.577017 65.095355-39.224124q10.849226-6.676447 18.360228-15.856561 6.676447-8.345558 8.762836-20.02934t-5.424613-26.705786q-6.676447-14.187449-25.453953-35.468623t-37.97229-40.475958q-22.533007-22.533007-49.238794-46.735126l84.290139-51.742461q21.698452 46.735126 32.964955 70.102689t17.108394 35.885901 9.180114 21.281174 9.180114 25.453953zM813.274654 195.807661q6.676447 57.584352 6.676447 103.484923t-2.503667 78.448248q-3.338223 38.389568-8.345558 66.764466-10.01467 30.878566-48.404238 49.238794-16.691117 7.511002-40.475958 13.352893t-58.00163 7.511002-78.865526-2.08639-102.233089-14.604727q4.172779 9.180114 7.92828 16.273839t6.259169 12.935615q3.338223 6.676447 5.007335 12.518337l-76.779136 22.533007q-10.01467-30.878566-23.367563-59.253464-11.683782-24.202119-28.374898-50.907905t-37.555012-44.231459q15.022005-8.345558 27.540342-14.187449 10.849226-5.841891 19.194784-10.01467t8.345558-3.338223q11.683782 10.849226 21.698452 22.115729t19.194784 22.950285q9.180114 4.172779 18.360228 7.92828t18.360228 7.92828q-10.849226-19.194784-27.540342-44.231459t-33.382233-44.231459l32.547677-28.374898 12.518337 12.518337 13.352893 14.187449q8.345558 7.511002 17.525672 17.525672l42.562347 0 3.338223-60.922575-123.514262 0 0-35.051345 123.514262 0 0-73.440913-4.172779 0-14.187449 0q-10.01467 0-20.863896 0.834556t-19.612062 2.920945-11.266504 6.259169q-6.676447 10.01467-3.755501 27.123064t3.755501 28.792176l-62.591687 0-7.511002-1.669112q-5.841891-36.720456 0-65.095355 2.503667-12.518337 7.511002-23.784841t14.187449-20.02934 22.950285-14.187449 33.799511-4.590057q37.555012-0.834556 67.599022 5.007335t52.994295 15.022005 39.641402 19.612062 26.705786 17.94295l10.849226-40.05868 60.922575 25.036675-38.389568 94.304808 21.698452 0 0 35.051345-108.492258 0 0 60.922575 105.98859 0 0 35.051345-190.278729 0q10.01467 12.518337 19.194784 25.871231t10.849226 20.02934l-32.547677 8.345558q63.426243 10.849226 113.499593 10.849226 20.863896 0 41.310513-2.08639t36.303178-7.92828 25.453953-15.856561 9.597392-25.036675l0-215.315403q-1.669112-20.02934-10.849226-35.051345-8.345558-13.352893-25.871231-23.367563t-49.238794-8.345558l-45.90057 7.511002-10.849226-33.382233q56.749796-16.691117 102.650367-14.187449 20.02934 0.834556 39.224124 5.841891t34.634067 16.273839 26.288509 30.04401 14.187449 47.98696zM643.025265 229.189894q-17.525672-13.352893-43.396903-22.533007l0 65.92991 63.426243 0-29.209454-9.180114z"  horiz-adv-x="1024" />

    
    <glyph glyph-name="yinle" unicode="&#58894;" d="M977.92 198.656q-7.168-38.912-27.648-69.632-17.408-26.624-52.224-48.128t-94.208-21.504q-38.912 0-73.728 5.12t-61.44 17.408-43.52 32.256-19.968 48.64 8.192 59.904 33.792 56.832 54.784 41.984 70.144 16.384q64.512 0 112.64-22.528l0 428.032-464.896-67.584 4.096-570.368 0-25.6q0-30.72-12.288-59.904t-34.304-51.712-53.248-35.84-69.12-13.312q-40.96 0-75.776 7.68t-61.44 22.528-43.008 36.864-19.456 50.688 8.192 55.808 34.304 48.64 55.296 36.352 70.144 18.944q28.672 4.096 56.32 0.512t52.224-11.776l0 571.392 646.144 93.184 0-651.264z"  horiz-adv-x="1024" />

    
    <glyph glyph-name="licai" unicode="&#58895;" d="M976.896 12.288q0-19.456-6.656-36.352t-18.944-29.696-28.672-19.968-35.84-7.168l-743.424 0q-19.456 0-36.864 7.168t-30.72 19.968-20.992 29.696-7.68 36.352l0 510.976q0 38.912 27.136 66.048t66.048 27.136l743.424 0q38.912 0 66.048-27.136t27.136-66.048l0-139.264-232.448 0q-38.912 0-66.048-26.624t-27.136-65.536q1.024-26.624 11.264-47.104 8.192-17.408 27.136-31.744t54.784-14.336l232.448 0 0-186.368zM837.632 663.552l-464.896 0q55.296 28.672 104.448 55.296 43.008 22.528 84.992 45.056t65.536 34.816q35.84 19.456 64 17.92t47.616-9.728q22.528-11.264 38.912-29.696zM698.368 291.84q0 19.456 13.312 32.768t32.768 13.312 32.768-13.312 13.312-32.768-13.312-33.28-32.768-13.824-32.768 13.824-13.312 33.28z"  horiz-adv-x="1024" />

    
    <glyph glyph-name="caipiao" unicode="&#58896;" d="M500.736 418.816q-21.504 0-34.816 13.312-13.312 14.336-13.312 35.84 0 20.48 13.312 33.792 12.288 13.312 32.768 13.312 21.504 0 34.816-13.312 13.312-12.288 13.312-33.792 0-22.528-13.312-35.84-12.288-13.312-32.768-13.312zM549.888 322.56q19.456-16.384 19.456-45.056 0-26.624-18.432-43.008-19.456-16.384-49.152-16.384-30.72 0-50.176 17.408-19.456 18.432-19.456 44.032t20.48 43.008q19.456 18.432 50.176 18.432 28.672 0 47.104-18.432zM930.816 736.256q38.912 0 66.048-27.136t27.136-66.048l0-558.08q0-38.912-27.136-66.048t-66.048-27.136l-93.184 0 0 46.08-47.104 0 0-46.08-697.344 0q-38.912 0-66.048 27.136t-27.136 66.048l0 558.08q0 38.912 27.136 66.048t66.048 27.136l697.344 0 0-47.104 47.104 0 0 47.104 93.184 0zM277.504 584.704l-123.904 0-48.128-77.824 80.896 0 0-355.328 91.136 0 0 433.152zM632.832 204.8q18.432 30.72 18.432 68.608 0 34.816-16.384 63.488-15.36 30.72-45.056 49.152 21.504 22.528 31.744 45.056 8.192 21.504 8.192 43.008 0 34.816-16.384 61.44-17.408 29.696-46.08 45.056-29.696 15.36-65.536 15.36-39.936 0-68.608-15.36-29.696-15.36-46.08-44.032-16.384-26.624-16.384-61.44 0-25.6 10.24-47.104 8.192-20.48 29.696-41.984-31.744-23.552-45.056-50.176-15.36-29.696-15.36-62.464 0-38.912 18.432-70.656t50.176-47.104q30.72-15.36 83.968-15.36 49.152 0 78.848 16.384 30.72 14.336 51.2 48.128zM837.632 177.152l-47.104 0 0-46.08 47.104 0 0 46.08zM837.632 316.416l-47.104 0 0-47.104 47.104 0 0 47.104zM837.632 455.68l-47.104 0 0-47.104 47.104 0 0 47.104zM837.632 594.944l-47.104 0 0-46.08 47.104 0 0 46.08z"  horiz-adv-x="1024" />

    
    <glyph glyph-name="baoxian" unicode="&#58897;" d="M513.024 197.632q-25.6-35.84-59.392-69.632t-80.896-59.392l0 129.024 140.288 0zM372.736 663.552l-93.184 0 0 46.08 47.104 0 0 140.288 371.712 0 0-140.288 47.104 0 0-46.08-93.184 0 0 93.184-279.552 0 0-93.184zM884.736 616.448q38.912 0 66.048-27.136t27.136-66.048l0-558.08q0-38.912-27.136-66.048t-66.048-27.136l-744.448 0q-38.912 0-66.048 27.136t-27.136 66.048l0 558.08q0 38.912 27.136 66.048t66.048 27.136l744.448 0zM791.552 243.712l-186.368 0 0 47.104 140.288 0 0 186.368-279.552 0 0-186.368 93.184 0 0-47.104-186.368 0 0 139.264q12.288 28.672 16.384 58.368t12.288 59.392l-57.344 15.36q-33.792-134.144-98.304-243.712 1.024-3.072 3.072-14.336t4.096-23.552 4.096-23.04 2.048-13.824q6.144 9.216 15.36 21.504t18.944 25.6 18.432 25.088 14.848 20.992l0-279.552 46.08 0 0 57.344q7.168-5.12 21.504-23.04t25.6-34.304q47.104 25.6 80.384 59.904t58.88 80.384l0-140.288 46.08 0 0 140.288q20.48-40.96 57.344-76.8t86.016-63.488q1.024 1.024 7.68 11.776t14.336 22.528 13.824 22.016 7.168 12.288q-48.128 23.552-83.456 54.272t-55.808 63.488l139.264 0 0 46.08zM698.368 337.92l-185.344 0 0 92.16 185.344 0 0-92.16z"  horiz-adv-x="1024" />

    
    <glyph glyph-name="lvxing" unicode="&#58898;" d="M700.065799 522.972239q116.507301-104.243374 209.508743-189.068865 39.857761-35.769785 77.671534-71.028574t67.451595-63.36362 47.522715-47.011718 17.884893-21.972868l0-61.319632q0-4.087975-17.884893 1.532991t-47.522715 17.373896-67.451595 27.593834-77.671534 33.214801q-93.001442 40.879755-209.508743 95.04543l0-193.156841q26.571841-19.417883 50.077699-37.813773 20.439877-15.329908 40.879755-30.148819t31.68181-22.994862q13.28592-9.197945 15.329908-18.906887t2.043988-22.994862l0-34.747791q0-8.175951-16.862899-10.730936t-40.368758 8.686948q-11.241933 6.131963-40.879755 18.39589t-63.36362 26.571841-64.896611 26.571841-46.500721 18.39589q-2.043988 0-3.576979 0.510997t-3.576979 0.510997-3.576979-0.510997-3.576979-0.510997q-15.329908-6.131963-46.500721-18.39589t-64.896611-26.571841-63.36362-26.571841-40.879755-18.39589q-23.505859-11.241933-40.368758-8.686948t-16.862899 10.730936l0 34.747791q0 13.28592 2.043988 22.994862t15.329908 18.906887q11.241933 8.175951 31.68181 22.994862t40.879755 30.148819q23.505859 18.39589 50.077699 37.813773l0 193.156841q-117.529295-54.165675-210.530737-95.04543-39.857761-17.373896-77.160537-33.214801t-66.940598-27.593834-47.522715-17.373896-17.884893-1.532991l0 61.319632q0 3.065982 17.884893 21.972868t47.522715 47.011718 66.940598 63.36362 77.160537 71.028574q93.001442 84.825491 210.530737 189.068865l0 231.992608q0 34.747791 10.219939 58.764647t25.549847 39.346764 33.214801 23.505859 33.725798 12.263926 26.060844 4.598972 11.241933 0.510997l10.219939 0q11.241933-1.021994 27.082837-5.109969t33.725798-12.263926 33.214801-23.505859 25.549847-39.346764 10.219939-58.764647l0-231.992608z"  horiz-adv-x="1121" />

    
    <glyph glyph-name="wangyou" unicode="&#58899;" d="M821.248 709.632q40.96 34.816 92.672 43.008t96.768-5.632 75.776-48.64 30.72-86.016l0-385.024q0-43.008-12.8-79.36t-36.864-60.416-58.368-32.768-77.312 3.584q-28.672 8.192-52.224 22.016t-45.056 28.16-43.008 26.624-46.08 16.384l-372.736 0q-24.576 0-46.592-11.776t-43.52-27.136-45.056-30.72-51.2-23.552q-43.008-12.288-77.312-3.584t-58.88 33.28-37.376 61.44-12.8 79.872l0 382.976q6.144 50.176 37.888 84.992t73.728 49.152 88.576 6.144 82.432-43.008q15.36-15.36 44.032-38.912t65.024-46.08 79.36-38.4 88.064-15.872q44.032 0 84.48 16.384t74.24 38.912 59.904 46.08 43.52 37.888zM232.448 244.736q19.456 0 36.352 7.168t29.696 19.456 19.968 29.184 7.168 36.352q0 38.912-27.136 66.048t-66.048 27.136q-19.456 0-36.352-7.168t-29.696-19.968-19.968-29.696-7.168-36.352q0-38.912 27.136-65.536t66.048-26.624zM977.92 384l-46.08 0 0 46.08-93.184 0 0-46.08-47.104 0 0-93.184 47.104 0 0-46.08 93.184 0 0 46.08 46.08 0 0 93.184z"  horiz-adv-x="1118" />

    
    <glyph glyph-name="huafei" unicode="&#58900;" d="M792.576 896q19.456 0 36.352-7.168t29.696-19.968 19.968-29.696 7.168-36.352l0-837.632q0-38.912-27.136-66.048t-66.048-27.136l-559.104 0q-38.912 0-66.048 27.136t-27.136 66.048l0 837.632q0 19.456 7.168 36.352t19.968 29.696 29.696 19.968 36.352 7.168l559.104 0zM419.84 802.816l185.344 0 0 47.104-185.344 0 0-47.104zM512-80.896q19.456 0 36.352 7.168t29.696 19.968 19.968 29.696 7.168 36.352-7.168 36.352-19.968 29.184-29.696 19.456-36.352 7.168q-38.912 0-65.536-26.624t-26.624-65.536 26.624-66.048 65.536-27.136zM792.576 756.736l-559.104 0 0-605.184 559.104 0 0 605.184z"  horiz-adv-x="1024" />

    
    <glyph glyph-name="Uzhan" unicode="&#58901;" d="M1137.575865 896l0-1024-1137.575865 0 0 1024 340.727595 0 0-739.606034 455.212067 0 0 739.606034 341.636202 0z"  horiz-adv-x="1138" />

    
    <glyph glyph-name="wenzhang" unicode="&#58902;" d="M1137.575865 896l0-795.939663-267.130435-228.060337-870.44543 0 0 1024 1137.575865 0zM795.939663 213.636202l-626.030169 0 0-113.575865 626.030169 0 0 113.575865zM966.757764 440.787933l-796.84827 0 0-113.575865 796.84827 0 0 113.575865zM966.757764 668.84827l-796.84827 0 0-114.484472 796.84827 0 0 114.484472z"  horiz-adv-x="1138" />

    
    <glyph glyph-name="dianpu" unicode="&#58903;" d="M1137.575865 570.718722q0.908607-4.543035 0.908607-8.177462l0-8.177462q0-43.613132-15.446318-82.228926t-41.795918-68.599823l0-531.535049-1024 0 0 532.443656q-26.349601 29.984028-41.795918 68.145519t-15.446318 81.774623l0 341.636202 1137.575865 0 0-325.281278zM966.757764 334.480923q-13.629104-3.634428-27.258208-5.451642t-29.075421-1.817214q-51.790594 0-95.403727 20.897959t-75.414374 55.425022q-31.801242-34.527063-75.414374-55.425022t-95.403727-20.897959q-50.881988 0-94.49512 20.897959t-75.414374 55.425022q-31.801242-34.527063-75.414374-55.425022t-95.403727-20.897959q-28.166815 0-57.242236 7.268855l0-348.905058 795.939663 0 0 348.905058z"  horiz-adv-x="1139" />

    
    <glyph glyph-name="tupian" unicode="&#58904;" d="M427.045253 383.545697q-29.984028 0-55.879326 11.357587t-44.976043 30.892635-30.438332 45.430346-11.357587 54.970719 11.357587 54.970719 30.438332 44.976043 44.976043 30.438332 55.879326 11.357587q29.075421 0 54.970719-11.357587t44.976043-30.438332 30.438332-44.976043 11.357587-54.970719-11.357587-54.970719-30.438332-45.430346-44.976043-30.892635-54.970719-11.357587zM1137.575865-128l-1137.575865 0 0 1024 1137.575865 0 0-113.575865 0-910.424135zM1024 782.424135l-909.515528 0 0-702.35315q16.354925 23.62378 36.344277 47.24756t41.795918 42.704525 44.976043 31.346939 46.793256 12.266193q28.166815 0 48.61047-4.088731t36.344277-10.44898 29.529725-14.083407 29.529725-14.083407 35.889973-10.44898 48.156167-4.088731 48.61047 16.809228 37.707187 42.250222 34.527063 54.516415 39.070098 54.516415 51.790594 42.250222 72.688554 16.809228q36.344277 0 69.962733-22.26087t62.239574-57.696539 52.699201-79.048802 42.250222-85.409051l0 643.2937z"  horiz-adv-x="1138" />

    
    <glyph glyph-name="baobei" unicode="&#58905;" d="M57.242236 269.969831l397.969831 0 0-397.969831-397.969831 0 0 397.969831zM683.272405 269.969831l397.969831 0 0-397.969831-397.969831 0 0 397.969831zM0 611.606034l455.212067 0 0-284.393966-455.212067 0 0 284.393966zM1137.575865 611.606034l0-284.393966-454.303461 0 0 284.393966 454.303461 0zM512.454303 611.606034l113.575865 0 0-739.606034-113.575865 0 0 739.606034zM683.272405 667.939663l-228.060337 0 0 170.818101 228.060337 0 0-170.818101zM1024 667.939663l-284.393966 0 111.758651 228.060337 172.635315 0 0-228.060337zM398.878438 667.939663l-284.393966 0 0 228.060337 169.909494 0z"  horiz-adv-x="1138" />

    
    <glyph glyph-name="pinpai" unicode="&#58906;" d="M318.464 325.632l132.096 0-2.048-135.168-128 0zM641.024 319.488l128 0 0-129.024-128 0 0 129.024zM448.512 640l192.512 0 0-129.024-192.512 0 0 129.024zM892.928 831.488q28.672 0 52.736-10.752t41.984-29.184 28.16-43.52 10.24-53.76l0-621.568q0-28.672-10.24-53.76t-28.16-43.52-41.984-29.184-52.736-10.752l-691.2 0q-28.672 0-53.76 10.752t-43.52 29.184-29.184 43.52-10.752 53.76l0 621.568q0 28.672 10.752 53.76t29.184 43.52 43.52 29.184 53.76 10.752l691.2 0zM512 66.56q-1.024 5.12-1.536 29.184t-0.512 56.832l0 71.68q0 37.888 0.512 71.168t1.024 57.344 1.536 30.208q-6.144-1.024-25.088-1.536t-45.056-1.024-55.296-0.512-55.808 0.512-47.104 1.024-27.648 1.536q1.024-5.12 1.536-28.672t1.024-56.832 0.512-71.68-0.512-72.704-1.024-59.392-1.536-31.232l61.44 0 2.048 64.512 128 0 2.048-60.416 61.44 0zM385.024 447.488q10.24 1.024 35.84 2.048t58.88 1.536 70.144 0.512 69.12-0.512 55.808-1.024 30.72-1.536q-1.024 5.12-1.536 24.576t-1.024 46.08-0.512 56.832 0.512 56.832 1.024 46.08 1.536 24.576q-7.168-1.024-31.232-1.536t-56.832-1.024-69.632-0.512l-70.656 0q-32.768 0-57.856 1.024t-34.304 2.048q1.024-4.096 1.536-23.04t0.512-45.568l0-58.368 0-57.344q0-27.648-0.512-47.104t-1.536-24.576zM832.512 69.632q-1.024 5.12-1.024 28.672l0 56.32 0 71.68 0 71.68q0 32.768 0.512 56.32t1.536 28.672q-7.168-1.024-26.624-1.536t-46.08-1.024-56.32-0.512l-55.296 0q-25.6 0-45.568 0.512t-26.112 1.536q1.024-5.12 1.536-29.184t0.512-56.832l0-71.68 0-72.704q0-33.792-0.512-58.368t-1.536-30.72l59.392 0 4.096 64.512 128 0 3.072-57.344 60.416 0z"  horiz-adv-x="1027" />

    
    <glyph glyph-name="nvren" unicode="&#58907;" d="M811.008 125.952q-9.216-1.024-19.456-3.584t-18.432-5.632q-10.24-4.096-19.456-9.216-2.048 11.264 1.024 22.528 2.048 10.24 8.192 21.504t20.48 22.528q25.6 17.408 60.928 21.504t66.048-8.192 48.128-42.496 6.144-82.432q-9.216-41.984-37.888-76.288t-76.288-52.736-112.128-17.408-144.384 28.672q-55.296 19.456-87.04 48.64t-47.616 59.904-18.944 57.856-1.024 42.496 12.8 37.888 22.016 43.008q13.312 24.576 29.696 50.176 8.192 13.312 14.336 25.6 5.12 11.264 8.192 22.528t0 21.504q-10.24 26.624-25.6 40.96t-29.696 21.504q-17.408 7.168-35.84 8.192-25.6 1.024-47.104 6.144-18.432 5.12-36.352 13.312t-26.112 25.6q-9.216 17.408-7.68 35.84t7.168 36.352 11.776 34.304 6.144 28.672q0 32.768-34.816 46.08-45.056 11.264-67.584 9.216t-31.744-8.704-9.216-12.288 0-1.536q0-14.336 3.584-36.864t-3.584-43.008q-5.12-12.288-13.824-23.04t-14.848-19.968q-8.192-13.312-13.824-23.04t-4.608-12.8q2.048-4.096 9.728-5.632t11.776-3.584q5.12-3.072 6.656-9.728t7.68-11.776q10.24-10.24 12.288-17.408 1.024-4.096 0-7.168 0-8.192 1.024-19.456 1.024-9.216 2.56-20.992t4.608-23.04q6.144-26.624 14.336-37.376t19.968-13.312 28.16-0.512 39.936 2.048q17.408-1.024 35.84-1.024t32.768-8.192 22.528-22.528 13.312-28.672q4.096-17.408 6.144-35.84 3.072-23.552 3.072-47.104 0-20.48-2.048-44.544t-10.24-47.616q-17.408-48.128-51.2-71.68t-72.704-30.72q-40.96-8.192-77.824-2.048t-66.56 20.48-48.64 34.816-23.04 40.96q-3.072 16.384-0.512 32.256t7.68 30.72 12.288 28.16 12.288 25.6q9.216 19.456 11.264 34.304t0 25.088q-2.048 11.264-8.192 20.48-9.216 10.24-19.456 21.504-8.192 10.24-17.408 22.016t-15.36 26.112q-20.48 41.984-21.504 77.824 0 15.36 0.512 37.376t7.68 41.472q6.144 16.384 30.208 43.52t53.76 70.144q6.144 12.288 10.752 25.6t7.168 24.576 3.584 19.456 1.024 11.264q0 10.24-1.024 22.528t-2.048 25.6q0 6.144-1.024 20.48t2.56 31.744 12.8 35.328 28.672 32.256q15.36 11.264 36.352 15.872t39.424 5.632q21.504 1.024 45.056-1.024 19.456 7.168 40.96 11.264 18.432 4.096 43.008 7.168t51.2 3.072q89.088-2.048 149.504-27.136t99.328-61.44 59.392-78.848 29.696-78.848 10.752-61.44 1.536-26.112q1.024-17.408 12.288-31.744t26.112-29.184 30.72-30.208 27.136-33.792q21.504-38.912 23.552-69.632t-8.192-54.272-28.672-40.448-37.376-28.16-34.816-17.408-19.968-8.192q-33.792-15.36-51.712-33.792t-24.064-36.864-2.56-35.84 14.848-29.696q7.168-9.216 18.432-15.36t23.04-9.216 22.528-3.584 17.92 1.536q16.384 3.072 27.136 14.848t12.8 25.088-5.632 22.528-27.136 8.192z"  horiz-adv-x="1024" />

    
    <glyph glyph-name="regou" unicode="&#58908;" d="M690.176 779.264q72.704 28.672 120.832 18.432t77.312-39.936 40.448-69.12 10.24-70.144q-1.024-20.48-1.536-40.448t-5.12-43.008-16.896-51.712-36.352-66.56-62.464-88.064-95.744-116.736q-79.872-92.16-140.288-150.016t-111.104-90.112-95.744-44.032-93.184-11.776q-57.344-1.024-92.672 19.456t-55.296 49.152-27.136 59.392-8.192 51.2q-1.024 21.504-1.024 57.344t17.92 87.552 61.952 119.296 132.096 151.552q60.416 57.344 103.936 95.744t75.776 64.512 56.832 41.472 46.592 26.112 45.056 19.456 53.76 20.992zM759.808 577.536q14.336 12.288 24.064 34.304t17.92 43.52q8.192 25.6 15.36 53.248l-62.464-5.12q0-12.288-4.096-24.576-4.096-11.264-12.288-24.064t-22.528-27.136q-15.36-14.336-33.28-10.752t-36.864 9.728-38.912 8.192-39.424-13.312-22.016-37.888-0.512-46.592 1.536-46.08-15.872-35.328-32.256-11.776-34.304 6.144-34.304 5.12-31.232-14.848q-28.672-30.72-35.84-57.856t-7.168-49.664l0-43.008q0-18.432-15.36-31.744t-34.816-13.824-40.96 1.536-43.52 0.512-42.496-16.896-26.112-46.592-4.608-61.952q1.024-36.864 9.216-77.824l72.704-4.096q-13.312 25.6-18.432 49.152-5.12 20.48-3.072 41.984t19.456 37.888q17.408 15.36 36.352 15.36t38.912-3.072 40.448-1.536 41.984 20.992 28.16 45.568 8.192 51.712 3.584 47.616 14.336 32.256q17.408 16.384 34.816 14.336t35.84-7.68 37.376-7.168 39.424 16.896 23.552 42.496 1.024 47.616-3.072 44.544 11.264 33.28 30.208 11.776 37.888-3.584 38.912-3.584 33.28 11.776z"  horiz-adv-x="1024" />

    
    <glyph glyph-name="tiantianquan" unicode="&#58909;" d="M941.056 518.144q20.48-66.56 20.48-135.168 0-93.184-35.328-174.592t-96.256-142.336-142.848-96.256-175.104-35.328-174.592 35.328-142.336 96.256-96.256 142.336-35.328 174.592 35.328 175.104 96.256 142.848 142.336 96.256 174.592 35.328q63.488 0 121.344-16.896t108.032-46.592q-17.408-21.504-27.648-48.128t-10.24-57.344q0-33.792 12.8-63.488t34.816-52.224 52.224-35.328 64-12.8q20.48 0 38.4 5.12t35.328 13.312zM349.184 698.368q-13.312-2.048-20.992-13.312t-5.632-24.576 13.312-20.48 24.576-5.12l62.464 11.264q13.312 2.048 20.992 12.8t5.632 24.064-12.8 20.48-24.064 5.12zM238.592 407.552q11.264 8.192 13.312 20.992t-6.144 24.064-20.48 13.312-23.552-6.144l-52.224-36.864q-11.264-8.192-13.824-20.48t5.632-23.552 20.992-13.824 24.064 5.632zM320.512 384q0-39.936 14.848-75.264t40.96-61.44 61.44-40.96 75.264-14.848 74.752 14.848 60.928 40.96 40.96 61.44 14.848 75.264-14.848 74.752-40.96 60.928-60.928 40.96-74.752 14.848-75.264-14.848-61.44-40.96-40.96-60.928-14.848-74.752zM748.544 77.824q12.288 5.12 17.408 17.408t0 24.576-17.408 17.408-24.576 0l-59.392-24.576q-12.288-5.12-17.408-17.408t0-24.576 17.408-17.408 24.576 0zM893.952 305.152q5.12 12.288 0 24.576t-17.408 17.408l-59.392 24.576q-12.288 5.12-24.576-0.512t-17.408-17.92 0.512-24.064 17.92-16.896l58.368-24.576q12.288-5.12 24.576 0t17.408 17.408z"  horiz-adv-x="1024" />

    
    <glyph glyph-name="jiangefuhao" unicode="&#58910;" d="M769.024 446.464q26.624 0 45.056-18.432t18.432-45.056-18.432-45.568-45.056-18.944l-513.024 0q-26.624 0-45.568 18.944t-18.944 45.568 18.944 45.056 45.568 18.432l513.024 0z"  horiz-adv-x="1024" />

    
    <glyph glyph-name="hanbao" unicode="&#58911;" d="M128 446.464l769.024 0 0-130.048-23.552 0q-20.48 0-26.624 10.752t-10.24 24.064-12.8 24.576-33.28 13.312q-24.576 1.024-44.544-8.704t-38.4-22.016-36.352-23.04-38.4-10.752-30.72 9.216-18.944 19.968-19.968 19.968-32.768 9.216-43.008-7.168-41.984-15.872-40.96-15.872-39.936-7.168q-20.48 0-34.816 5.12t-29.184 11.776-31.744 12.8-42.496 8.192q-28.672 2.048-54.272-7.68t-44.032-22.016l0 101.376zM128 125.952l769.024 0 0-128-769.024 0 0 128zM783.36 316.416q17.408 1.024 26.624-7.168t17.92-19.456 18.944-20.48 28.672-9.216l21.504 0 0-69.632-769.024 0 0 79.872q13.312 12.288 37.376 26.112t54.784 13.824q22.528 0 35.84-7.168t25.6-15.872 28.16-15.872 44.544-7.168 51.712 6.656 43.008 15.36 36.864 15.36 32.256 6.656q24.576 0 33.792-8.192t16.896-17.408 18.944-17.408 38.912-8.192 49.152 8.704 39.424 19.456 34.304 19.968 33.792 11.264zM897.024 510.976l-769.024 0 0 64.512q8.192 43.008 41.984 78.848t86.016 61.952 118.272 40.448 138.752 14.336q73.728 0 139.776-14.336t117.248-40.448 84.992-61.952 41.984-78.848l0-64.512zM347.136 640q13.312 0 22.528 9.216t9.216 22.528-9.216 22.528-22.528 9.216-22.528-9.216-9.216-22.528 9.216-22.528 22.528-9.216zM538.624 703.488q14.336 0 23.04 9.216t8.704 22.528-8.704 22.528-23.04 9.216q-13.312 0-22.016-9.216t-8.704-22.528 8.704-22.528 22.016-9.216zM667.648 640q13.312 0 22.528 9.216t9.216 22.528-9.216 22.528-22.528 9.216-22.528-9.216-9.216-22.528 9.216-22.528 22.528-9.216z"  horiz-adv-x="1024" />

    
    <glyph glyph-name="yangshengqi" unicode="&#58912;" d="M830.450526 42.240001q-11.722105-8.791579-27.351579-8.791579-19.536842 0-33.701053 14.164211t-14.164211 33.701053q0 21.490526 16.606316 36.143158 0.976842 0.976842 1.953684 1.465263t1.953684 1.465263l0.976842 0.976842q27.351579 18.56 50.795789 43.957895t41.027368 55.191579 27.351579 63.494737 9.768421 69.84421q0 73.263158-37.12 133.827368t-92.8 99.637895q-20.513684 14.652632-20.513684 39.073684 0 19.536842 14.164211 33.701053t33.701053 14.164211q16.606316 0 29.305263-10.745263 36.143158-25.397895 67.402105-59.098947t53.726316-73.263158 35.166316-84.496842 12.698947-92.8q0-48.842105-12.698947-93.776842t-35.654737-84.985263-54.214737-73.751579-68.378947-59.098947zM775.747368 480.842106q20.513684-28.328421 32.72421-57.145263t12.210526-69.84421q0-39.073684-12.698947-70.332632t-32.235789-56.656842q-7.814737-10.745263-16.606316-19.048421t-22.467368-8.303158q-17.583158 0-29.793684 12.698947t-12.210526 30.282105q0 7.814737 2.930526 15.629474l-0.976842 0q4.884211 10.745263 11.722105 20.513684t13.187368 20.025263 10.745263 23.444211 4.395789 31.747368q0 17.583158-4.395789 30.770526t-10.745263 23.932632-13.187368 20.513684-10.745263 20.513684q-2.930526 6.837895-2.930526 15.629474 0 17.583158 12.210526 30.282105t29.793684 12.698947q13.675789 0 22.467368-8.303158t16.606316-19.048421zM460.227368-99.402104q-49.818947 44.934737-105.498947 93.776842t-103.545263 89.869474q-55.68 46.888421-111.36 92.8-10.745263-0.976842-21.490526-0.976842-8.791579-0.976842-18.56-0.976842l-16.606316 0q-26.374737 0-42.981053 16.117895t-16.606316 38.585263l0 246.16421 0.976842 0-0.976842 0.976842q0 27.351579 17.094737 44.934737t42.492632 17.583158l55.68 0q89.869474 76.193684 163.132631 136.757895 31.258947 26.374737 61.541053 51.28421t54.703158 45.423158 41.027368 34.189474 20.513684 16.606316q29.305263 21.490526 47.376842 19.536842t28.328421-17.583158 14.164211-38.096842 3.907368-41.027368l0-788.311578 0-2.930526q0-18.56-6.837895-39.562105t-21.002105-33.212632-35.654737-10.256842-49.818947 28.328421z"  horiz-adv-x="1024" />

    
    <glyph glyph-name="kouhong" unicode="&#58913;" d="M704.24286 574.504494l0-608.428201q0-17.383663-6.646695-33.744757t-19.940084-30.165768-32.210905-21.985221-44.481726-8.180547l-116.572798 0q-52.150989 0-76.181346 29.654484t-24.030357 69.534651l0 603.315358 320.063911 0zM639.821051 640.97144l-192.24286 0 0 108.392251q0 17.383663 2.045137 27.609347t7.157979 17.383663 13.293389 13.804673 19.4288 16.872379q32.722189 29.654484 52.662273 44.481726t36.301178 19.940084q23.519073 8.180547 36.301178 6.13541t18.406231-11.248252 6.13541-23.519073 0.511284-29.654484l0-190.197723z"  horiz-adv-x="1024" />

    
    <glyph glyph-name="yongjing" unicode="&#58914;" d="M970.752 628.736q-38.912 6.144-52.224 6.144-9.216 0-13.312-1.024l0 73.728q0 29.696 8.704 43.008t31.232 13.312l51.2 0q21.504 0 29.184-11.776t7.68-41.472l0-100.352-15.36 6.144q-8.192 2.048-19.968 5.632t-27.136 6.656zM1219.584 371.712q7.168-6.144 10.752-24.064t3.584-36.864-5.632-35.328-16.896-20.48q-6.144-2.048-14.336-3.072t-15.36-1.024l-16.384 0q1.024-7.168 0-17.408-1.024-8.192-2.56-19.968t-3.584-26.112q-4.096-19.456-27.648-45.056t-53.76-50.176-59.392-45.056-43.52-29.696q-26.624-16.384-51.2-15.872t-49.664 12.288-52.224 33.28-59.904 47.104q-18.432 14.336-37.888 33.28t-38.4 35.84-35.84 27.648-30.208 9.728q-14.336-1.024-31.744-12.8t-35.84-27.648-35.84-32.768-30.72-27.136q-24.576-19.456-53.248-42.496t-61.44-38.4-68.608-17.408-74.752 20.48q-22.528 12.288-48.64 32.256t-48.64 42.496-37.888 45.568-15.36 42.496q0 15.36-0.512 27.648t-1.536 20.48q-1.024 10.24-1.024 16.384-15.36-2.048-29.696-1.536t-22.528 8.704q-6.144 6.144-11.264 22.016t-7.168 33.792 0.512 35.328 11.776 26.624q7.168 8.192 17.92 10.752t20.992 3.584q11.264 1.024 24.576 0 0 17.408 2.048 33.792 2.048 14.336 5.12 28.672t10.24 22.528q17.408 22.528 76.8 40.96t150.528 32.768q143.36 22.528 294.912 23.04t290.816-19.968q73.728-11.264 133.12-29.696t92.16-41.984q9.216-7.168 13.824-22.528t6.656-32.768q2.048-19.456 2.048-41.984 13.312 1.024 25.6 0 10.24-1.024 20.992-3.072t15.872-7.168zM1022.976 217.088q6.144 10.24 8.704 26.624t2.56 34.816-0.512 35.328-0.512 29.184q0 19.456-8.192 34.816t-29.184 26.624-57.344 18.944-92.672 12.8q-56.32 4.096-123.904 6.144t-134.656 1.024-128.512-4.096-106.496-9.216q-31.744-4.096-59.904-9.728t-49.152-14.848-33.28-23.04-12.288-35.328l0-26.624q0-18.432 1.024-39.936t3.072-41.472 6.144-30.208q6.144-15.36 22.016-31.232t34.304-28.672 35.84-19.968 26.624-5.12q18.432 5.12 43.008 20.992t52.224 38.912 56.32 49.664 56.32 53.248q35.84 35.84 79.36 37.888t84.48-31.744q27.648-23.552 55.808-51.712t55.296-53.248 52.224-43.008 46.592-22.016q11.264-2.048 27.136 7.68t32.256 24.064 31.232 31.232 24.064 31.232z"  horiz-adv-x="1234" />

    
    <glyph glyph-name="dianyundou" unicode="&#58915;" d="M801.792 196.608q15.36 0 22.528-10.752t7.168-23.04-7.68-23.04-22.016-11.776l-1031.168 0q-16.384 0-25.6 7.168t-9.216 24.576q0 10.24 3.584 16.896t8.704 11.776 12.288 8.192l1041.408 0zM654.336 700.416q27.648-2.048 66.048-7.168t73.216-15.872 60.416-26.624 28.672-39.424q4.096-33.792 6.144-69.632t2.56-68.608 0-59.392-1.536-41.984q-1.024-27.648-14.848-48.64t-37.376-34.816-55.296-20.992-67.584-7.168l-60.416 0-114.688 0-150.528 0-165.888 0-438.272 0q33.792 64.512 75.776 116.224t88.576 95.744 95.232 80.384 96.768 70.144q15.36 11.264 44.544 24.576t60.928 25.088 61.44 19.968 46.08 10.24q82.944 6.144 155.136 4.608t144.896-6.656zM718.848 432.128q4.096 12.288 5.12 39.936t-0.512 55.296-7.168 49.664-14.848 24.064q-28.672 5.12-73.728 9.216t-92.16 5.632-88.064 0-62.464-5.632q-29.696-6.144-65.024-16.896t-69.12-28.16-63.488-41.984-47.104-58.368q-16.384-29.696-1.024-45.568t44.544-23.552 64-9.216 58.368-1.536q28.672 0 73.216 0.512t90.624 0.512l83.968 0 57.344 0q12.288 0 28.672 1.536t32.256 6.656 28.672 13.824 17.92 24.064zM1078.272 574.464q18.432 0 26.112-19.456t6.656-43.008-9.728-42.496-23.04-18.944l-120.832 1.024-4.096 123.904z"  horiz-adv-x="1376" />

    
    <glyph glyph-name="yingpan" unicode="&#58916;" d="M719.872 742.4q34.816 0 53.248-9.728t31.744-37.376q5.12-11.264 16.384-34.816t25.6-53.248 29.696-62.976 29.184-62.976 24.576-52.736 14.848-33.28q5.12-11.264 8.704-16.896t6.144-12.288 3.584-15.872 1.024-25.6q0-12.288-0.512-37.888t-0.512-54.272l0-57.344 0-39.936q0-28.672-16.896-48.64t-48.64-19.968l-786.432 0q-29.696 0-45.056 18.944t-16.384 48.64l0 35.84q0 23.552 0.512 50.176t0.512 53.248l0 43.008q0 17.408 0.512 27.648t2.56 17.92 4.608 15.872 7.68 20.48q3.072 8.192 13.312 31.232t24.576 52.736 31.232 63.488 31.744 64 27.136 53.76l16.384 33.792q13.312 26.624 32.768 35.84t46.08 9.216l430.08 0zM897.024 306.176q0 30.72-28.672 30.72l-724.992-1.024q-17.408 0-26.624-9.728t-9.216-25.088l0-145.408q0-12.288 6.656-20.48t20.992-8.192l729.088-1.024q20.48 0 26.624 9.728t6.144 24.064l0 146.432zM293.888 689.152q-14.336 0-24.064-9.728t-9.728-24.064 9.728-24.064 24.064-9.728 23.552 9.728 9.216 24.064-9.216 24.064-23.552 9.728zM215.04 504.832q-14.336 0-24.064-9.728t-9.728-24.064 9.728-24.064 24.064-9.728 24.064 9.728 9.728 24.064-9.728 24.064-24.064 9.728zM686.08 655.36q0-14.336 9.216-24.064t23.552-9.728 24.064 9.728 9.728 24.064-9.728 24.064-24.064 9.728-23.552-9.728-9.216-24.064zM763.904 471.04q0-14.336 9.728-24.064t24.064-9.728 23.552 9.728 9.216 24.064-9.216 24.064-23.552 9.728-24.064-9.728-9.728-24.064zM233.472 155.648l-30.72 0 0 145.408 30.72 0 0-145.408zM326.656 155.648l-30.72 0 0 145.408 30.72 0 0-145.408zM420.864 155.648l-30.72 0 0 145.408 30.72 0 0-145.408zM514.048 155.648l-30.72 0 0 145.408 30.72 0 0-145.408zM610.304 155.648l-30.72 0 0 145.408 30.72 0 0-145.408zM705.536 155.648l-30.72 0 0 145.408 30.72 0 0-145.408zM795.648 155.648l-30.72 0 0 145.408 30.72 0 0-145.408z"  horiz-adv-x="1024" />

    
    <glyph glyph-name="juanzhi" unicode="&#58917;" d="M923.648 663.552q0-25.6-24.064-47.616t-66.048-38.4-97.792-25.6-120.32-9.216-120.832 9.216-98.304 25.6-66.56 38.4-24.576 47.616 24.064 47.616 66.048 38.912 98.304 26.624 120.832 9.728 120.832-9.728 98.304-26.624 66.048-38.912 24.064-47.616zM615.424 713.728q-38.912 0-65.536-13.312t-26.624-31.744 26.624-31.232 65.536-12.8q37.888 0 65.024 12.8t27.136 31.232-27.136 31.744-65.024 13.312zM306.176 581.632q28.672-22.528 72.704-40.96 37.888-15.36 95.744-28.16t139.776-12.8q82.944 0 141.312 12.8t96.256 28.16q43.008 18.432 71.68 40.96l0-477.184q0-14.336-16.896-33.28t-52.736-36.352-91.648-29.184-133.632-11.776q-78.848 0-139.264 10.24t-101.376 26.112-61.952 35.84-20.992 38.4l0 258.048q0 99.328 1.024 219.136zM256 571.392l-183.296 0 79.872-233.472-79.872-233.472 183.296 0 0 466.944z"  horiz-adv-x="1024" />

    
    <glyph glyph-name="bangqiu" unicode="&#58918;" d="M150.959487 505.099369q-11.250554-13.29611-20.455553-31.706107-8.182221-15.341665-14.318887-36.819996t-6.136666-49.093327q0-32.728885 5.625277-57.275549t12.784721-40.911106q8.182221-18.409998 19.432775-32.728885 17.38722 11.250554 31.706107 29.660552 11.250554 15.341665 21.478331 39.37694t10.227777 59.832493q0 26.592219-9.716388 49.093327t-20.966942 37.842773q-13.29611 18.409998-29.660552 32.728885zM182.665595 541.919365q19.432775-20.455553 34.77444-46.024995 13.29611-21.478331 24.035275-49.604716t10.739165-59.832493q0-42.956662-12.273332-73.128602t-26.592219-50.627494q-17.38722-23.523886-37.842773-37.842773 22.501108-17.38722 48.07055-29.660552 21.478331-11.250554 48.581939-20.455553t55.741382-9.204999q30.68333 0 57.275549 7.670832t47.047772 17.898609q23.523886 11.250554 41.933884 26.592219-20.455553 15.341665-37.842773 39.888329-14.318887 20.455553-26.592219 52.16166t-12.273332 77.731102q-1.022778 32.728885 11.250554 59.832493t26.592219 47.559161q17.38722 23.523886 38.865551 41.933884-18.409998 16.364442-41.933884 28.637774-20.455553 11.250554-47.047772 19.944164t-57.275549 8.69361q-29.660552 0-55.229993-8.182221t-46.024995-18.409998q-23.523886-11.250554-43.979439-25.569441zM499.726668 504.076591q10.227777-12.273332 19.432775-30.68333 8.182221-15.341665 14.318887-37.331384t6.136666-49.604716q0-32.728885-6.136666-57.275549t-13.29611-40.911106q-8.182221-19.432775-18.409998-32.728885-18.409998 11.250554-31.706107 29.660552-11.250554 15.341665-21.478331 39.37694t-9.204999 59.832493q0 26.592219 9.204999 49.093327t20.455553 37.842773q13.29611 18.409998 30.68333 32.728885zM694.054423 336.341056q-8.182221 58.298326-15.853054 100.743599t-8.69361 78.242491q-1.022778 17.38722-2.045555 59.832493t-2.556944 90.004434-2.556944 91.027211-1.022778 62.900826q1.022778 40.911106 24.035275 59.832493t61.878048 16.875831q35.797218-1.022778 59.832493-17.38722t24.035275-53.184438l0-73.639991q0-41.933884-0.511389-84.379157t-1.022778-80.799435-1.534166-61.878048-3.579722-43.979439-6.136666-42.445273-8.182221-46.536383-8.69361-55.229993l-107.391654 0zM701.213866 287.247728l20.455553-251.603303q-12.273332-3.068333-23.523886-7.159444-9.204999-4.091111-18.921387-9.716388t-14.830276-14.830276-2.045555-20.966942 13.807498-22.501108 29.149163-18.409998 45.002217-7.670832 46.536383 7.670832 31.194719 18.921387 13.807498 24.035275-4.602499 21.98972q-8.182221 9.204999-17.898609 15.341665t-18.921387 9.204999q-11.250554 4.091111-21.478331 5.113888l18.409998 250.580526-96.1411 0z"  horiz-adv-x="1024" />

    
    <glyph glyph-name="shouyinji" unicode="&#58919;" d="M954.282523 516.914163q0 30.199908-19.970907 51.145005t-58.93853 20.945097l-737.462268 0q-33.12248 0-51.145005-16.56124t-17.048335-44.812767l0-36.045051 0-74.038484 0-90.599724 0-90.599724 0-71.115912 0-33.12248q0-31.174099 18.509621-47.248243t46.761148-16.074145l740.38484 0q34.09667 0 56.503054 20.458002t22.406383 50.65791l0 39.941814 0 70.141722 0 85.728771 0 83.78039 0 66.244959 0 31.174099zM532.458002 449.695013q0-22.406383-17.048335-40.916004t-41.4031-18.509621l-301.999079 0q-24.354764 0-41.4031 18.022526t-17.048335 39.454718l0 12.664478q0 22.406383 17.048335 39.454718t41.4031 17.048335l301.999079 0q24.354764 0 41.4031-18.022526t17.048335-39.454718l0-9.741906zM745.805739 153.541077q-32.148289 0-59.912721 12.177382t-48.709529 32.635384-33.12248 48.222434-12.177382 59.912721 12.177382 60.399816 33.12248 48.709529 48.709529 32.635384 59.912721 12.177382 59.912721-12.177382 48.709529-32.635384 33.12248-48.709529 12.177382-60.399816-12.177382-59.912721-33.12248-48.222434-48.709529-32.635384-59.912721-12.177382zM278.194261 624.075127l-91.573914 0 138.335062 245.496026q9.741906 15.587049 24.354764 22.893479t31.174099-0.487095 18.996716-25.328955-3.409667-29.225717z"  horiz-adv-x="1024" />

    
    <glyph glyph-name="zhangpeng" unicode="&#58920;" d="M772.096 503.808q41.984-55.296 72.192-113.152t50.688-107.008q23.552-56.32 40.96-111.616l-866.304 0q17.408 46.08 41.984 96.256 20.48 43.008 51.2 98.304t71.68 113.664q73.728 105.472 144.384 151.552t123.904 46.08q30.72 0 62.464-8.704t65.024-29.184 68.608-53.76 73.216-82.432zM502.784 503.808q-31.744 0-55.296-25.6t-44.032-61.44q-8.192-13.312-17.408-34.816t-14.848-41.984-5.632-35.328 11.264-14.848l63.488 0 60.416 0 63.488 0 70.656 0q10.24 0 9.216 13.824t-8.192 33.792-16.896 40.448-16.896 33.792q-22.528 41.984-44.032 67.072t-55.296 25.088zM955.392 67.584q0-13.312-8.704-22.528t-20.992-9.216l-845.824 0q-12.288 0-21.504 9.216t-9.216 22.528 8.192 22.528 20.48 9.216l849.92 0q12.288 0 19.968-9.216t7.68-22.528z"  horiz-adv-x="1024" />

    
    <glyph glyph-name="erhuan" unicode="&#58921;" d="M421.888 46.08q0-23.552-8.704-43.52t-24.064-35.328-35.84-24.064-43.008-8.704q-23.552 0-43.52 8.704t-35.328 24.064-24.064 35.328-8.704 43.52q0 22.528 8.704 43.008t24.064 35.84 35.328 24.064 43.52 8.704q22.528 0 43.008-8.704t35.84-24.064 24.064-35.84 8.704-43.008zM806.912 46.08q0-23.552-8.704-43.52t-24.064-35.328-35.84-24.064-43.008-8.704q-23.552 0-44.032 8.704t-35.84 24.064-24.064 35.328-8.704 43.52q0 22.528 8.704 43.008t24.064 35.84 35.84 24.064 44.032 8.704q22.528 0 43.008-8.704t35.84-24.064 24.064-35.84 8.704-43.008zM347.136 245.76q0-11.264-9.728-18.432t-24.064-7.168-24.064 7.168-9.728 18.432l0 448.512q0 11.264 9.728 20.48t24.064 9.216 24.064-7.68 9.728-19.968l0-450.56zM728.064 245.76q0-11.264-9.216-18.432t-23.552-7.168-24.064 7.168-9.728 18.432l0 452.608q0 12.288 9.728 18.944t24.064 6.656 23.552-6.656 9.216-18.944l0-452.608z"  horiz-adv-x="1024" />

    
    <glyph glyph-name="lvxingdai" unicode="&#58922;" d="M506.88 747.52q27.648-26.624 50.688-26.112t54.784 29.184q12.288 11.264 31.232 1.536t41.984-31.232 48.128-52.224 48.64-61.44 44.544-57.856 35.328-42.496q18.432-20.48 29.184-51.2t-3.584-68.608q-9.216-24.576-13.312-56.832t-4.608-64 3.072-59.392 9.728-43.008q18.432-47.104 18.944-81.408t-27.136-47.616q-23.552-10.24-60.416-21.504t-82.432-20.992-96.256-15.872-100.864-6.144q-49.152 0-100.864 4.608t-96.768 14.336-79.872 24.064-50.176 34.816-12.288 44.032 11.264 62.464q4.096 19.456 9.728 49.664t8.704 62.976 1.536 63.488-10.752 51.2q-19.456 43.008-14.336 74.752t40.96 63.488q13.312 11.264 33.792 36.352t45.568 54.784 51.712 59.392 51.712 51.2 46.592 29.696 35.84-4.096z"  horiz-adv-x="1024" />

    
    <glyph glyph-name="qukuanji" unicode="&#58923;" d="M888.832 330.752q0-40.96-18.944-65.536t-67.072-24.576l-585.728 0q-43.008 0-65.024 27.136t-22.016 75.264l0 390.144q0 47.104 19.456 74.24t70.656 27.136l577.536 0q52.224 0 71.68-23.04t19.456-70.144l0-410.624zM604.16 735.232q0 28.672-25.6 28.672l-339.968 0q-27.648 0-27.648-30.72l0-162.816q0-14.336 5.632-21.504t20.992-8.192l336.896-1.024q29.696 0 29.696 28.672l0 166.912zM812.032 430.08q0 13.312-14.336 13.312l-102.4 0q-14.336 0-14.336-13.312t14.336-13.312l102.4 0q14.336 0 14.336 13.312zM811.008 713.728q0 20.48-17.408 20.48l-83.968 0q-11.264 0-14.848-6.144t-3.584-17.408l0-109.568q0-11.264 3.584-18.944t14.848-7.68l84.992 0q12.288 0 14.336 7.168t2.048 18.432l0 113.664zM330.752 479.232q-6.144 0-10.24-1.536t-4.096-8.704l0-16.384q0-9.216 10.24-9.216l9.216 0 14.336 0 14.336 0 8.192 0q7.168 0 8.704 2.56t1.536 6.656l0 16.384q0 4.096-1.024 7.68t-7.168 2.56l-44.032 0zM440.32 479.232q-6.144 0-9.728-0.512t-4.608-7.68q0-6.144 0.512-11.264t-0.512-10.24q0-5.12 3.584-5.632t7.68-0.512l49.152 0q7.168 0 7.168 7.168l0 21.504q0 3.072-1.024 5.632t-7.168 1.536l-45.056 0zM222.208 479.232q-6.144 0-9.728-1.536t-3.584-8.704q-1.024-4.096-0.512-8.704t0.512-8.704q-1.024-5.12 2.56-7.168t6.656-2.048l46.08 0q9.216 1.024 9.216 10.24l0 15.36q0 4.096-1.024 7.68t-7.168 3.584q-5.12-1.024-17.92-0.512t-25.088 0.512zM551.936 479.232q-7.168 0-10.752-0.512t-3.584-7.68q-1.024-6.144-0.512-11.264t0.512-10.24q-1.024-5.12 2.56-5.632t7.68-0.512l51.2 0q8.192 0 8.192 7.168l0 21.504q0 3.072-1.024 5.632t-7.168 1.536l-47.104 0zM330.752 412.672q-6.144 0-10.24-0.512t-4.096-7.68l0-21.504q0-6.144 10.24-6.144l48.128 0q8.192 0 8.192 8.192l0 20.48q0 3.072-1.024 5.632t-7.168 1.536l-44.032 0zM440.32 412.672q-6.144 0-9.728-0.512t-4.608-7.68q0-6.144 0.512-11.264t-0.512-10.24q0-4.096 3.584-5.12t7.68-1.024l49.152 0q7.168 0 7.168 8.192l0 20.48q0 3.072-1.024 5.632t-7.168 1.536l-45.056 0zM222.208 412.672q-6.144 0-9.728-0.512t-3.584-7.68q-1.024-7.168-0.512-12.288t0.512-9.216q-1.024-5.12 2.56-6.144t6.656-1.024l48.128 0q8.192 0 8.192 8.192l0 20.48q0 3.072-1.024 5.632t-7.168 2.56q-5.12-1.024-18.432-0.512t-25.6 0.512zM551.936 412.672q-6.144 0-10.24-0.512t-4.096-7.68q-1.024-6.144-0.512-11.264t0.512-10.24q-1.024-4.096 2.56-5.12t7.68-1.024l51.2 0q8.192 0 8.192 8.192l0 20.48q0 3.072-1.024 5.632t-7.168 1.536l-47.104 0zM330.752 348.16q-6.144 0-10.24-0.512t-4.096-7.68l0-21.504q0-5.12 3.072-5.632t7.168-0.512l48.128 0q8.192 0 8.192 7.168l0 20.48q0 4.096-1.024 6.144t-7.168 2.048l-44.032 0zM440.32 348.16q-6.144 0-9.728-0.512t-4.608-7.68q0-7.168 0.512-11.776t-0.512-9.728q0-5.12 3.584-5.632t7.68-0.512l49.152 0q7.168 0 7.168 7.168l0 20.48q0 4.096-1.024 6.144t-7.168 2.048l-45.056 0zM222.208 347.136q-6.144 0-9.728-0.512t-3.584-6.656q-1.024-7.168-0.512-12.288t0.512-10.24q-1.024-4.096 2.56-5.12t6.656-1.024l48.128 0q7.168 0 7.168 8.192l0 20.48q0 3.072-1.024 5.632t-6.144 1.536l-44.032 0zM551.936 348.16q-6.144 0-10.24-0.512t-4.096-7.68q-1.024-7.168-0.512-11.776t0.512-9.728q-1.024-5.12 2.56-5.632t7.68-0.512l51.2 0q8.192 0 8.192 7.168l0 20.48q0 4.096-1.024 6.144t-7.168 2.048l-47.104 0zM888.832-9.216q0-38.912-16.384-57.344t-63.488-18.432l-589.824 0q-38.912 0-64 15.36t-25.088 62.464l0 118.784q0 44.032 16.896 62.464t65.024 18.432l588.8 0q40.96 0 64.512-15.872t23.552-60.928l0-124.928zM809.984 90.112q0 17.408-9.216 28.672t-28.672 13.312l-526.336 0q-20.48 1.024-30.208-11.776t-10.752-33.28l0-58.368q1.024-19.456 7.68-28.16t29.184-10.752l533.504-1.024q19.456 0 27.136 10.24t7.68 29.696l0 61.44z"  horiz-adv-x="1024" />

    
    <glyph glyph-name="qipao" unicode="&#58924;" d="M543.744 247.808q0 30.72-11.776 58.368t-31.744 47.616-47.104 31.744-57.856 11.776-58.368-11.776-47.616-31.744-31.744-47.616-11.776-58.368 11.776-57.856 31.744-47.104 47.616-31.744 58.368-11.776 57.856 11.776 47.104 31.744 31.744 47.104 11.776 57.856zM736.256 44.032q0 22.528-8.704 43.008t-24.064 35.328-35.84 23.552-43.008 8.704q-23.552 0-43.52-8.704t-34.816-23.552-23.552-35.328-8.704-43.008q0-23.552 8.704-43.52t23.552-35.328 34.816-24.064 43.52-8.704q22.528 0 43.008 8.704t35.84 24.064 24.064 35.328 8.704 43.52zM545.792 421.888q-45.056 0-83.968 16.896t-68.096 46.08-46.08 68.096-16.896 82.944 16.896 83.456 46.08 68.096 68.096 45.568 83.968 16.896q44.032 0 82.944-16.896t68.096-45.568 46.08-68.096 16.896-83.456-16.896-82.944-46.08-68.096-68.096-46.08-82.944-16.896zM435.2 731.136q-17.408 0-29.696-12.288t-12.288-29.696 12.288-29.696 29.696-12.288 29.696 12.288 12.288 29.696-12.288 29.696-29.696 12.288z"  horiz-adv-x="1024" />

    
    <glyph glyph-name="rili" unicode="&#58925;" d="M285.696 761.856q0-14.336-9.216-22.528t-22.528-8.192q-12.288 0-20.992 8.704t-8.704 24.064l-1.024 70.656q0 17.408 9.216 26.112t21.504 8.704q13.312 0 22.528-9.216t9.216-26.624l0-71.68zM925.696 570.368l-843.776 0 0 106.496q0 30.72 17.408 50.176t48.128 19.456l709.632 0q37.888 0 53.248-18.944t15.36-48.64l0-108.544zM925.696 161.792q0-32.768-6.144-56.832t-20.48-39.936-38.4-23.552-59.904-7.68l-592.896 0q-72.704 0-99.328 33.792t-26.624 102.4l0 328.704 843.776 0 0-336.896zM520.192 294.912q-10.24 0-17.408-7.168t-7.168-17.408 7.168-17.408 17.408-7.168 17.408 7.168 7.168 17.408-7.168 17.408-17.408 7.168zM551.936 348.16l77.824 0q16.384 0 22.016-15.36t-13.824-34.816q-19.456-18.432-34.816-36.864t-25.6-43.008q-8.192-21.504-8.192-38.912t1.024-24.576q3.072-20.48 25.6-20.48 8.192 0 11.776 6.656t3.584 14.848q0 4.096 0.512 13.824t3.072 20.992 7.68 23.552 13.312 21.504q16.384 18.432 36.864 37.888t27.648 39.936q3.072 10.24 2.56 23.04t-5.632 23.552-14.848 18.432-23.04 8.704q-10.24 1.024-24.576 1.024l-30.72 0q-15.36 0-28.16-0.512t-18.944-0.512q-11.264 0-16.384-6.656t-6.144-11.776q0-6.144 4.608-13.312t12.8-7.168zM356.352 352.256q5.12 2.048 12.288 2.048t14.336-2.56 13.312-8.192 9.216-14.848q3.072-14.336-4.608-27.648t-15.872-17.408q-9.216-5.12-8.192-14.336t8.192-13.312q6.144-4.096 13.312-8.192t12.288-18.432q1.024-6.144 0.512-14.848t-4.608-16.896-11.264-14.848-18.432-8.704q-21.504-4.096-33.792 6.144t-14.336 17.408q-3.072 8.192-10.24 10.752t-13.312 0.512q-9.216-2.048-11.776-11.264t-0.512-14.336 9.728-17.408 29.184-23.552q10.24-6.144 27.648-7.68t34.816 2.048 33.28 14.848 24.064 31.744q7.168 17.408 6.144 32.256t-5.632 25.6-10.24 16.896-6.656 8.192q-5.12 5.12-4.608 10.752t5.632 10.752q6.144 9.216 9.216 18.432t2.048 23.552q0 7.168-2.56 16.896t-9.728 18.432-18.944 15.872-31.232 10.24-34.304-1.536-25.6-12.288-16.896-16.384-8.192-12.8q-4.096-9.216-1.024-18.944t11.264-11.776 12.8 2.048 7.68 9.216q2.048 5.12 8.192 11.776t17.408 11.776zM783.36 762.88q0-14.336-8.704-23.04t-20.992-8.704q-13.312 0-22.016 8.192t-8.704 23.552l0 75.776q0 17.408 8.704 24.064t22.016 6.656q12.288 0 20.992-7.68t8.704-25.088l0-73.728z"  horiz-adv-x="1024" />

    
    <glyph glyph-name="yinle1" unicode="&#58926;" d="M875.52 462.848q-7.168 1.024-12.8 10.24t-8.704 33.792q-5.12 39.936-26.112 58.88t-65.024 27.136q-46.08 9.216-81.408 37.376t-58.88 52.736q-22.528 21.504-34.816 15.36t-12.288-22.528l0-44.032 0-96.256q0-57.344-0.512-123.904t-0.512-125.952l0-104.448 0-58.368q1.024-24.576-7.68-54.784t-32.768-56.832-64-45.568-99.328-22.016q-60.416-3.072-109.056 21.504t-75.264 61.952-26.112 81.92 38.4 83.456 81.92 54.272 84.992 16.896 73.216-5.632 47.616-13.312l0 289.792q0 120.832 1.024 272.384 0 29.696 15.36 48.64t40.96 22.016q21.504 3.072 35.328-8.704t28.16-32.768 35.328-47.616 56.832-52.224q30.72-23.552 53.76-33.792t43.008-18.944 39.424-20.992 43.008-39.936q23.552-26.624 28.672-55.296t0.512-52.224-14.848-38.4-17.408-13.824z"  horiz-adv-x="1024" />

    
    <glyph glyph-name="xiyiji" unicode="&#58927;" d="M696.32 360.448q0-39.936-14.848-74.752t-40.96-60.928-60.928-40.96-74.752-14.848-74.752 14.848-60.928 40.96-40.96 60.928-14.848 74.752 14.848 74.752 40.96 60.928 60.928 40.96 74.752 14.848 74.752-14.848 60.928-40.96 40.96-60.928 14.848-74.752zM760.832-17.408q0-11.264-9.216-20.48t-23.552-15.872-33.792-10.752-38.912-4.096l-308.224 0q-17.408 0-34.816 4.096t-31.232 10.752-22.528 15.872-8.704 20.48l510.976 0zM770.048 847.872q44.032 0 64-25.6t19.968-61.44l0-657.408q0-35.84-25.6-61.44t-64.512-25.6l-518.144 0q-39.936 0-64.512 25.6t-24.576 61.44l0 657.408q0 35.84 22.528 60.928t61.44 25.088zM225.28 728.064q0-11.264 7.68-20.992t25.088-9.728l77.824 0q17.408 0 25.6 11.776t8.192 23.04l0 15.36q0 11.264-9.216 20.48t-25.6 9.216l-74.752 0q-17.408 0-26.112-9.728t-8.704-20.992l0-18.432zM504.832 104.448q53.248 0 99.84 19.968t81.408 54.784 54.784 81.408 19.968 99.84q0 52.224-19.968 98.816t-54.784 81.408-81.408 54.784-99.84 19.968q-52.224 0-98.816-19.968t-81.408-54.784-54.784-81.408-19.968-98.816q0-53.248 19.968-99.84t54.784-81.408 81.408-54.784 98.816-19.968z"  horiz-adv-x="1024" />

    
    <glyph glyph-name="kongdiao" unicode="&#58928;" d="M933.888 697.344q30.72 0 44.032-17.408t13.312-49.152l0-199.68-942.08 0 0 202.752q0 29.696 14.848 46.592t43.52 16.896l826.368 0zM49.152 393.216l942.08 0 0-100.352q0-18.432-8.192-33.28t-21.504-25.6-30.72-16.384-35.84-5.632l-749.568 0q-5.12 0-10.24 0.512t-10.24 1.536q2.048-11.264 8.192-27.648t22.528-33.792q12.288-13.312 27.136-24.064t28.672-18.432 24.576-12.288 14.848-5.632q19.456-5.12 16.384-18.432-3.072-14.336-25.6-7.168-5.12 1.024-17.92 6.144t-29.184 13.824-34.304 20.48-32.256 27.136q-11.264 12.288-18.432 25.6t-11.264 25.6-6.144 23.04-2.048 17.92q-18.432 10.24-29.696 27.136t-11.264 39.424l0 100.352zM115.712 264.192l807.936 0 0 49.152-807.936 0 0-49.152z"  horiz-adv-x="1024" />

    
    <glyph glyph-name="jieri" unicode="&#58929;" d="M631.808 623.616q0-53.248-18.944-100.352t-50.688-82.432-73.216-55.808-87.552-20.48-88.064 19.456-73.728 54.784-50.688 83.968-18.944 107.008q0 46.08 18.432 87.552t49.664 73.216 72.192 50.688 87.04 18.944 88.064-19.968 74.752-52.736 52.224-75.264 19.456-88.576zM360.448 292.864l-1.024-363.52 36.864 48.128 38.912-48.128 0 363.52-74.752 0zM604.16 811.008q21.504-25.6 38.912-55.296 14.336-25.6 26.624-58.368t12.288-68.608q-2.048-62.464-13.824-104.448t-26.112-67.584q-17.408-29.696-37.888-47.104 29.696 3.072 59.392 9.216 25.6 5.12 55.296 13.312t56.32 22.528q23.552 12.288 44.544 32.256t35.84 47.616 20.992 61.952 0 76.288q-6.144 43.008-35.84 76.8t-70.656 53.76-85.504 23.552-80.384-15.872zM605.184 352.256l-1.024-347.136 35.84 47.104 38.912-47.104 0 347.136-73.728 0z"  horiz-adv-x="1024" />

    
    <glyph glyph-name="yiyaoxiang" unicode="&#58930;" d="M977.92 352.256l0-265.216q0-139.264-185.344-139.264l-583.68 0q-45.056 0-76.288 11.264t-51.2 31.744-28.672 48.64-8.704 61.952l0 250.88 933.888 0zM506.88 311.296q-11.264-2.048-20.48-6.144-8.192-4.096-14.336-12.8t-6.144-24.064l0-54.272-60.416 0q-14.336 0-27.136-10.24t-12.8-29.696q-1.024-18.432 12.288-29.184t27.648-10.752l60.416 0 0-59.392q0-9.216 9.728-23.552t30.208-14.336 30.208 14.336 9.728 25.6l0 57.344 62.464 0q11.264 0 24.576 9.728t13.312 30.208q0 19.456-12.288 29.696t-27.648 10.24l-60.416 0 0 58.368q0 11.264-9.728 25.088t-29.184 13.824zM355.328 626.688q-2.048 21.504 2.048 44.032 3.072 19.456 11.776 41.472t28.16 42.496q15.36 16.384 39.936 28.16t52.224 15.36 57.344-2.048 56.32-23.04q26.624-18.432 39.424-43.008t17.92-48.128q6.144-26.624 5.12-55.296l-56.32 0q1.024 13.312-1.024 26.624-2.048 11.264-6.144 24.576t-12.288 24.576q-9.216 12.288-20.992 18.944t-23.04 10.24-21.504 4.608-14.336 1.024q-9.216 1.024-27.648-2.56t-41.984-22.016q-11.264-9.216-17.408-23.552t-8.192-28.672q-3.072-16.384-2.048-33.792l-57.344 0zM190.464 403.456l-148.48 0 0 22.528 0 23.552q0 13.312 1.024 27.648 0 14.336 5.632 32.256t19.456 33.28 35.328 26.112 54.272 10.752l76.8 0 128 0 151.552 0 149.504 0 122.88 0 69.632 0q25.6 0 47.104-8.192t37.888-22.528 25.6-33.28 9.216-40.448l0-70.656-150.528 0 0 32.768q0 11.264-10.24 22.016t-24.576 10.752-27.136-8.192-12.8-24.576l0-33.792-485.376 0 0 32.768q-1.024 13.312-12.288 23.552t-25.6 10.24-26.112-11.264-11.776-25.6l0-21.504q0-4.096 1.024-8.192z"  horiz-adv-x="1024" />

    
    <glyph glyph-name="xianglian" unicode="&#58931;" d="M626.688 27.648q0-22.528-8.704-42.496t-23.552-34.816-34.816-23.552-42.496-8.704-42.496 8.704-34.304 23.552-23.04 34.816-8.704 42.496q0 46.08 31.232 77.312t77.312 31.232q22.528 0 42.496-8.704t34.816-23.04 23.552-34.304 8.704-42.496zM415.744 724.992q0-29.696-22.016-51.2t-51.712-21.504q-30.72 0-52.224 21.504t-21.504 51.2q0 30.72 21.504 52.224t52.224 21.504q29.696 0 51.712-21.504t22.016-52.224zM252.928 646.144q0-29.696-21.504-51.2t-52.224-21.504q-29.696 0-51.712 21.504t-22.016 51.2q0 30.72 22.016 52.224t51.712 21.504q30.72 0 52.224-21.504t21.504-52.224zM252.928 480.256q0-30.72-21.504-52.224t-52.224-21.504q-29.696 0-51.712 21.504t-22.016 52.224q0 29.696 22.016 51.712t51.712 22.016q30.72 0 52.224-22.016t21.504-51.712zM294.912 313.344q0-30.72-21.504-52.224t-52.224-21.504-52.224 21.504-21.504 52.224 21.504 52.224 52.224 21.504 52.224-21.504 21.504-52.224zM379.904 146.432q0-29.696-21.504-51.712t-52.224-22.016-52.224 22.016-21.504 51.712q0 30.72 21.504 52.224t52.224 21.504 52.224-21.504 21.504-52.224zM586.752 772.096q0-30.72-22.016-52.224t-51.712-21.504q-30.72 0-52.224 21.504t-21.504 52.224q0 29.696 21.504 51.2t52.224 21.504q29.696 0 51.712-21.504t22.016-51.2zM615.424 724.992q0-29.696 21.504-51.2t52.224-21.504 52.224 21.504 21.504 51.2q0 30.72-21.504 52.224t-52.224 21.504-52.224-21.504-21.504-52.224zM777.216 646.144q0-29.696 22.016-51.2t51.712-21.504q30.72 0 52.224 21.504t21.504 51.2q0 30.72-21.504 52.224t-52.224 21.504q-29.696 0-51.712-21.504t-22.016-52.224zM777.216 480.256q0-30.72 22.016-52.224t51.712-21.504q30.72 0 52.224 21.504t21.504 52.224q0 29.696-21.504 51.712t-52.224 22.016q-29.696 0-51.712-22.016t-22.016-51.712zM736.256 313.344q0-30.72 21.504-52.224t52.224-21.504q29.696 0 51.2 21.504t21.504 52.224-21.504 52.224-51.2 21.504q-30.72 0-52.224-21.504t-21.504-52.224zM651.264 146.432q0-29.696 21.504-51.712t52.224-22.016q29.696 0 51.2 22.016t21.504 51.712q0 30.72-21.504 52.224t-51.2 21.504q-30.72 0-52.224-21.504t-21.504-52.224z"  horiz-adv-x="1024" />

    
    <glyph glyph-name="qiandai" unicode="&#58932;" d="M522.24 791.552q2.048 0 5.12 2.048 6.144 4.096 16.384 14.336 12.288 11.264 24.576 16.384t32.768-3.072q10.24-3.072 16.384-8.704t11.776-10.752 12.288-8.704 16.896-3.584 17.408 3.072 13.824 5.632 13.312 3.584 15.872-2.048q10.24-4.096 13.824-11.776t2.048-15.872-7.168-16.384-13.824-13.312q-19.456-12.288-29.696-25.088t-20.48-27.136q-5.12-7.168-11.264-16.384t-11.264-18.432q-6.144-11.264-13.312-21.504l-211.968 0q-7.168 12.288-14.336 23.552-6.144 10.24-13.312 20.48t-12.288 18.432q-10.24 15.36-23.04 27.136t-25.088 20.992q-13.312 9.216-18.432 25.088t9.216 27.136q7.168 5.12 16.384 4.096t19.456-4.096 19.968-6.144 17.92-1.024q14.336 3.072 21.504 10.752t24.576 18.944q13.312 8.192 29.696 5.632t24.576-10.752q4.096-5.12 8.704-8.704t9.728-6.656q5.12-4.096 11.264-7.168zM637.952 586.752q12.288-16.384 30.72-35.84 15.36-17.408 37.888-39.424t52.224-46.592q24.576-21.504 50.688-50.688t45.568-68.096 27.136-89.6-2.56-113.152q-9.216-51.2-36.352-96.768t-72.192-79.36-107.008-53.76-140.8-19.968q-80.896 0-143.36 23.04t-105.984 59.904-69.12 82.432-33.792 90.624q-9.216 50.176-2.56 96.256t24.064 86.528 43.52 74.24 56.832 60.416q26.624 23.552 48.128 44.544t35.84 38.4q17.408 19.456 30.72 36.864l230.4 0zM529.408 272.384l-27.648 27.648-21.504 21.504q-10.24 10.24-14.336 15.36-8.192 7.168-21.504 11.776t-22.528-5.632q-8.192-11.264-4.096-22.016t9.216-16.896l15.36-14.336q11.264-12.288 24.576-26.624 15.36-16.384 33.792-34.816l-1.024-21.504-69.632 0q-9.216 0-15.872-7.168t-6.656-15.36 6.144-14.336 16.384-6.144l69.632 0 0-35.84-69.632 0q-9.216 0-15.872-5.632t-6.656-14.848q-1.024-8.192 5.632-13.824t16.896-5.632l69.632 0 0-20.48q1.024-14.336 9.216-19.968t20.48-5.632q12.288-1.024 19.968 7.68t7.68 17.92l0 20.48 71.68 0q10.24 0 16.896 4.608t5.632 14.848q0 21.504-28.672 21.504l-65.536 0 1.024 34.816 66.56 1.024q14.336-1.024 20.48 5.632t6.144 15.872q0 8.192-6.656 14.848t-20.992 6.656l-66.56 0 0 19.456q17.408 16.384 31.744 31.744 12.288 12.288 24.576 25.088t18.432 17.92q23.552 20.48 10.24 35.84-7.168 9.216-18.432 9.216t-20.48-8.192q-5.12-4.096-17.408-14.848t-24.576-22.016q-14.336-13.312-31.744-29.696z"  horiz-adv-x="1024" />

    
    <glyph glyph-name="dengshanxie" unicode="&#58933;" d="M720.896 192.512q-3.072 15.36-17.92 19.456t-34.304-0.512-40.448-17.408-37.376-31.232q-20.48-23.552-54.784-33.792t-66.048-11.264q-2.048-10.24-9.728-16.896t-18.944-6.656l-39.936 0q-18.432 0-21.504 19.456-8.192 0-18.944 0.512t-24.064-0.512q-7.168-19.456-28.672-19.456l-37.888 0q-11.264 0-18.944 6.656t-9.728 16.896q-10.24 1.024-19.456 1.536t-19.456 1.536q-7.168-17.408-26.624-17.408l-37.888 0q-13.312 0-22.016 8.704t-8.704 20.992q-25.6 3.072-38.912 6.144-8.192 2.048-13.312 3.072-9.216 10.24-14.336 25.6-5.12 13.312-8.192 32.256t1.024 45.568q4.096 31.744 16.384 48.128t31.744 24.064 46.08 9.216 60.416 1.536q43.008 0 76.288 11.264t58.368 26.112 44.032 30.72 34.304 26.112q38.912 28.672 61.44 51.2t36.864 48.128q9.216 18.432 12.288 37.888t1.024 43.008q-1.024 26.624 16.896 44.544t42.496 17.92q20.48 0 39.424-5.12t39.424-13.312q39.936-15.36 74.752-18.944t56.32 1.536q37.888 9.216 66.56 13.312t52.224-10.24q16.384-11.264 22.016-26.112t6.656-31.232 0-30.72 3.072-23.552q8.192-18.432 18.944-59.392t16.896-111.616q3.072-30.72 3.584-58.88t0-50.176-2.048-34.816-4.608-12.8zM719.872 142.336q-1.024 4.096-0.512 12.288t0.512 16.384q0 10.24 1.024 21.504l244.736 1.024q-1.024-12.288-1.024-23.552-1.024-9.216-1.024-19.456t-2.048-15.36q-2.048-11.264-10.24-15.36t-19.456-5.12l-172.032 0q-18.432 0-28.672 7.68t-11.264 19.968zM438.272 327.68q11.264 0 19.968 8.704t8.704 20.992-8.704 20.992-19.968 8.704q-12.288 0-20.992-8.704t-8.704-20.992 8.704-20.992 20.992-8.704zM518.144 384q12.288 0 20.48 8.704t8.192 19.968q0 12.288-8.192 20.48t-20.48 8.192q-11.264 0-19.968-8.192t-8.704-20.48q0-11.264 8.704-19.968t19.968-8.704zM583.68 461.824q11.264 0 19.968 8.192t8.704 19.456-8.704 19.456-19.968 8.192-19.456-8.192-8.192-19.456 8.192-19.456 19.456-8.192z"  horiz-adv-x="1024" />

    
    <glyph glyph-name="pingbandiannao" unicode="&#58934;" d="M902.144 705.536q43.008-1.024 64.512-24.064t21.504-60.928l0-41.984q0-36.864-0.512-88.576t-0.512-111.616-0.512-112.128-0.512-90.112l0-45.056q0-32.768-18.944-54.784t-46.592-22.016l-784.384 0q-32.768 1.024-57.344 24.064t-24.576 59.904l0 481.28q0 16.384 5.632 31.744t16.384 27.648 26.112 19.968 35.84 7.68l44.032 0 88.064 0 116.736 0 133.12 0 131.072 0q65.536 0 118.272-0.512t88.576-0.512l44.032 0zM857.088 609.28l-694.272 0 1.024-452.608 692.224 1.024zM924.672 418.816q-15.36 0-26.624-10.752t-11.264-26.112 11.264-26.112 26.624-10.752 26.624 10.752 11.264 26.112-11.264 26.112-26.624 10.752z"  horiz-adv-x="1024" />

    
    <glyph glyph-name="bingxiang1" unicode="&#58935;" d="M288.191617 418.746507l0 408.782435q0 30.658683 10.219561 49.56487t44.966068 18.906188l319.872255 0q29.636727 0 46.499002-10.730539t16.862275-41.389222l0-425.133733-438.419162 0zM367.904192 840.814371q-11.241517 0-15.840319-6.642715t-4.598802-17.884232l0-324.982036q0-22.483034 20.439122-22.483034 8.175649 0 14.818363 5.620758t6.642715 16.862275l0 324.982036q0 12.263473-6.642715 18.39521t-14.818363 6.131737zM726.610778 379.912176l0-299.433134q0-11.241517-1.532934-21.972056t-12.774451-24.015968q-6.131737-7.153693-14.307385-10.730539t-16.351297-5.620758q-9.197605-3.065868-18.39521-3.065868 0-11.241517-2.043912-19.417166-2.043912-7.153693-6.642715-12.774451t-14.818363-5.620758q-11.241517-1.021956-15.840319 5.10978t-6.642715 13.285429q-3.065868 8.175649-2.043912 19.417166l-222.786427 0q0-10.219561-2.043912-19.417166-2.043912-8.175649-6.642715-14.307385t-15.840319-6.131737-16.351297 5.620758-7.153693 13.796407q-3.065868 9.197605-1.021956 20.439122-1.021956-1.021956-4.087824 0-2.043912 1.021956-7.153693 2.043912t-13.285429 5.10978q-16.351297 6.131737-23.50499 19.417166t-7.153693 30.658683l0 307.608782 438.419162 0zM368.926148 336.99002q-9.197605 0-15.329341-6.642715t-6.131737-17.884232q0-3.065868 0.510978-19.417166t0.510978-38.834331l0-50.075848 0-50.075848 0-40.878244 0-22.483034q-1.021956-14.307385 3.576846-24.015968t16.862275-9.708583 16.351297 7.153693 4.087824 18.39521l0 230.962076q0 10.219561-5.10978 16.862275t-15.329341 6.642715z"  horiz-adv-x="1024" />

    
    <glyph glyph-name="yingerche" unicode="&#58936;" d="M347.136 54.272q0-18.432-7.168-34.304t-18.944-27.648-27.648-18.944-34.304-7.168-34.816 7.168-28.16 18.944-18.944 27.648-7.168 34.304q0 36.864 26.112 62.976t62.976 26.112q18.432 0 34.304-7.168t27.648-18.944 18.944-28.16 7.168-34.816zM259.072 82.944q-12.288 0-20.48-8.192t-8.192-20.48q0-11.264 8.192-19.456t20.48-8.192q11.264 0 19.456 8.192t8.192 19.456q0 12.288-8.192 20.48t-19.456 8.192zM80.896 532.48q-4.096 8.192-7.168 15.36-2.048 6.144-4.096 13.312t0 13.312q5.12 11.264 19.456 10.752t30.72-2.56q8.192-2.048 13.824 2.048t8.192 9.728 1.024 12.288-7.68 10.752q-34.816 23.552-26.624 46.08 5.12 13.312 19.456 13.312t27.648-5.12q7.168-2.048 12.288 1.024t7.68 8.704 2.56 12.288-4.096 9.728q-8.192 8.192-16.896 22.016t-0.512 24.064q8.192 12.288 24.064 8.704t27.136-10.752q5.12-2.048 10.752-1.024t9.728 4.608 5.632 9.728-1.536 13.312q-7.168 14.336-6.656 29.696t8.704 20.48q11.264 5.12 24.064-2.048t20.992-18.432q9.216-13.312 21.504-10.24t11.264 16.384q-3.072 38.912 11.264 45.056 8.192 4.096 22.016-4.608t27.136-45.568q1.024-5.12 6.144-18.944t11.776-33.792 14.336-44.032 15.872-48.64l41.984-125.952zM668.672 54.272q0-18.432-7.168-34.304t-18.944-27.648-27.648-18.944-34.304-7.168-34.304 7.168-28.16 18.944-18.944 27.648-6.656 34.304q0 36.864 25.6 62.976t62.464 26.112q18.432 0 34.304-7.168t27.648-18.944 18.944-28.16 7.168-34.816zM580.608 82.944q-12.288 0-20.48-8.192t-8.192-20.48q0-11.264 8.192-19.456t20.48-8.192q11.264 0 19.456 8.192t8.192 19.456q0 12.288-8.192 20.48t-19.456 8.192zM90.112 478.208q7.168-37.888 20.48-77.824 11.264-33.792 30.208-73.216t48.64-72.192q23.552-27.648 45.568-41.472t40.96-19.968 33.28-6.656 23.552-1.536q40.96-4.096 87.552-3.072t82.432 3.072q39.936 2.048 75.776 19.968t76.8 66.048q24.576 29.696 41.472 65.536t27.136 67.584q11.264 36.864 18.432 73.728l-52.224 0q35.84 62.464 67.584 116.736 13.312 22.528 27.136 46.08t26.624 44.032 23.552 36.352 16.896 25.088q8.192 10.24 19.968 17.92t24.576 10.752 25.6 1.536 23.04-9.728q17.408-13.312 31.232-16.384t24.064 8.192q6.144 7.168 5.632 14.848t-5.12 14.848-11.264 12.8-12.8 9.728q-4.096 3.072-13.824 7.168t-23.04 7.168-28.672 3.584-31.744-4.608q-32.768-10.24-50.688-29.696t-34.304-45.056q-4.096-6.144-13.312-21.504t-21.504-35.328-26.112-44.032-28.16-47.616q-33.792-56.32-73.728-123.904z"  horiz-adv-x="1024" />

    
    <glyph glyph-name="Txu" unicode="&#58937;" d="M365.568 891.904q12.288 2.048 18.944-10.24t14.848-26.624q3.072-7.168 17.92-27.136t31.744-42.496 31.744-41.984 17.92-25.6q8.192-13.312 9.216-20.992t-12.288-6.656q-6.144 1.024-15.872-1.536t-19.456-6.656-18.432-9.728-12.8-9.728q-5.12-6.144-9.728-5.632t-8.704 5.632-7.68 12.8-4.608 15.872q-2.048 10.24-7.168 29.696t-11.264 41.472-11.264 43.52-8.192 35.84q-5.12 25.6-3.584 36.864t8.704 13.312zM662.528 891.904q7.168-2.048 8.704-13.312t-3.584-36.864q-3.072-14.336-8.192-35.84t-11.264-43.52-11.264-41.472-7.168-29.696q-2.048-8.192-5.12-15.872t-7.168-12.8-9.216-5.632-10.24 5.632q-3.072 4.096-11.776 9.728t-18.944 9.728-19.456 6.656-15.36 1.536q-13.312-1.024-12.288 6.656t8.192 20.992q4.096 6.144 18.432 25.6t31.232 41.984 31.744 42.496 18.944 27.136q8.192 14.336 14.848 26.624t18.944 10.24zM489.472 483.328l47.104 0 1.024 144.384 9.216 0q5.12 0 10.24 0.512t13.312 0.512q7.168 0 15.36-5.12l16.384-8.192q8.192-5.12 15.872-8.704t13.824-2.56q6.144 0 13.312 11.264t14.848 27.648 14.336 34.304 12.8 31.232q5.12 13.312 10.24 31.744t8.192 35.84q4.096 19.456 6.144 40.96l36.864-6.144q15.36-3.072 31.744-6.144t27.648-5.12q10.24-3.072 18.432-5.12t15.36-6.656 14.848-11.776 17.92-19.456 25.6-36.352 31.232-50.688 29.184-50.176 18.432-34.816q7.168-14.336 2.56-18.432t-9.728-8.192q-6.144-4.096-20.48-13.824t-31.744-20.992-34.816-20.992-28.672-13.824-14.848-2.56-6.656 6.656q-2.048 3.072-8.192 11.776t-13.312 18.432-13.312 18.432-8.192 10.752q-4.096 5.12-10.24 0.512t-6.144-20.992q0-8.192-0.512-28.16t-0.512-49.664l0-64.512 0-74.752q0-105.472-2.56-168.96t-4.608-99.328q-3.072-40.96-6.144-59.392l-495.616 0q-3.072 29.696-6.144 65.536-2.048 30.72-4.608 72.704t-1.536 91.136l0 80.896q0 41.984-0.512 79.872t-1.024 67.072-0.512 43.52l0 46.08q0 17.408-9.216 19.456-5.12 1.024-9.728-3.072t-9.728-11.264-9.728-15.36-8.704-14.336q-8.192-11.264-12.8-16.384t-7.68-6.144-5.12 0l-8.192 3.072q-13.312 4.096-31.232 13.824t-34.816 20.48-29.696 19.968-16.896 12.288q-8.192 5.12-11.776 8.192t1.536 19.456q3.072 8.192 13.824 28.672t25.6 44.544 30.208 48.128 27.648 41.472q17.408 25.6 34.304 36.864t40.448 16.384q11.264 2.048 28.16 4.608t31.232 5.632q17.408 4.096 35.84 7.168 4.096-21.504 8.192-40.96 4.096-17.408 7.68-35.328t7.68-29.184q3.072-11.264 10.24-28.16t14.848-33.28 15.36-29.184 12.8-15.872q10.24-5.12 23.552 5.12t30.72 15.36q8.192 2.048 16.384 2.56t14.336 0.512q7.168-1.024 13.312-2.048l0-143.36z"  horiz-adv-x="1024" />

    
    <glyph glyph-name="naifen" unicode="&#58938;" d="M334.162465 818.554622l16.253968-48.761905 10.517274-31.551821q43.02521 3.824463 88.918768 1.912232 39.200747-1.912232 85.572362-9.0831t90.352941-26.293184q28.683473-12.429505 43.503268-27.2493t17.210084-30.117647-8.126984-30.117647-31.551821-27.2493q-43.02521-25.815126-103.260504-38.244631t-132.900093-12.429505q-81.269841 0-137.680672 13.385621t-89.874883 31.551821q-17.210084 8.605042-29.639589 20.078431t-16.732026 23.902894 0 25.815126 21.512605 27.727358 38.722689 23.424837 40.634921 14.819795q22.946779 6.69281 45.893557 10.517274-0.956116 10.517274-1.912232 23.902894-0.956116 10.517274-1.434174 25.815126t-1.434174 33.464052q-0.956116 31.551821 1.912232 56.888889t13.385621 25.337068q4.780579 0 10.517274-9.0831t11.473389-21.034547 10.517274-25.337068 7.648926-21.990663zM373.363212 697.127918l37.288515-110.90943q24.85901-2.868347 49.718021-2.868347 21.990663 0 47.327731 2.390289t49.239963 10.039216q25.815126 7.648926 44.937442 17.210084t26.293184 20.556489 0 22.468721-35.854342 22.946779q-31.551821 12.429505-65.493931 17.210084t-64.537815 5.258637-54.498599-1.434174-34.420168-2.868347zM410.651727 485.826331q-21.990663 0-46.849673 2.868347-21.034547 1.912232-47.805789 5.258637t-54.498599 10.039216q-27.727358 5.736695-49.718021 14.819795t-37.288515 17.688142q-17.210084 10.517274-31.551821 20.078431l0-454.154995q0-5.736695-0.478058-15.297852t2.390289-19.600373 11.473389-19.600373 25.815126-17.210084q37.288515-17.210084 97.045752-32.507937t131.46592-15.297852q33.464052 0 68.840336 4.780579t67.406162 11.951447 57.366947 15.77591 38.722689 17.210084 21.034547 15.77591 10.995331 17.688142 3.824463 25.337068 0.478058 37.766573l0 427.383754q-17.210084-13.385621-41.112979-24.85901-21.034547-10.517274-51.152194-20.556489t-70.27451-15.77591q-30.595705-4.780579-50.674136-6.69281t-32.507937-2.868347q-14.341737-0.956116-22.946779 0zM831.34267 589.086835q-10.517274 0-22.468721-5.258637t-23.424837-15.77591-19.600373-27.2493-9.0831-40.634921q-1.912232-21.034547 1.912232-36.3324t9.561158-25.337068 11.473389-16.253968 8.605042-8.126984q8.605042-6.69281 17.210084-9.561158 4.780579-2.868347 9.561158-3.824463l0-303.088702q0-23.902894 16.253968-24.85901 17.210084 0 17.210084 23.902894l0 303.088702q5.736695 0.956116 12.429505 3.824463 12.429505 4.780579 24.85901 18.1662 5.736695 6.69281 11.473389 20.556489t8.126984 30.117647 0.478058 34.420168-10.517274 35.376284q-16.253968 32.507937-32.985994 39.678805t-31.073763 7.170868z"  horiz-adv-x="1024" />

    
    <glyph glyph-name="MP3" unicode="&#58939;" d="M814.242086 101.780261q0-31.463687-20.499069-52.916201t-60.543762-21.452514l-364.216015 0q-19.068901 0-34.324022 7.150838t-26.219739 18.592179-17.162011 26.219739-6.197393 30.03352l0 713.176909q0 32.417132 18.592179 52.916201t61.497207 20.499069l367.07635 0q44.811918 0 63.404097-19.545624t18.592179-59.590317l0-715.083799zM734.1527 817.817505l-369.936685-0.953445-0.953445-318.450652 371.843575-0.953445zM550.137803 429.765363q-33.370577 0-62.450652-12.394786t-51.009311-34.324022-34.324022-51.009311-12.394786-62.450652 12.394786-61.973929 34.324022-50.532588 51.009311-34.324022 62.450652-12.394786q32.417132 0 61.497207 12.394786t51.009311 34.324022 34.324022 50.532588 12.394786 61.973929-12.394786 62.450652-34.324022 51.009311-51.009311 34.324022-61.497207 12.394786zM632.134078 270.540037q0-17.162011-6.674115-31.94041t-17.638734-26.219739-25.743017-17.638734-31.94041-6.197393q-34.324022 0-58.160149 23.836127t-23.836127 58.160149q0 17.162011 6.197393 31.94041t17.638734 25.743017 26.219739 17.638734 31.94041 6.674115 31.94041-6.674115 25.743017-17.638734 17.638734-25.743017 6.674115-31.94041z"  horiz-adv-x="1024" />

    
    <glyph glyph-name="chuang" unicode="&#58940;" d="M212.865404 139.485543q0-9.188435-8.677966-17.866401t-20.929212-8.677966q-11.230309 0-19.908275 8.167498t-8.677966 19.397807l0 57.172483 58.19342 0 0-58.19342zM163.860419 743.880359q15.314058 0 33.690927 4.083749 15.314058 4.083749 35.222333 12.761715t41.347956 26.033898q28.586241 22.460618 56.151545 42.368893t57.172483 34.711864 62.277168 23.481555 72.48654 8.677966q65.33998 0 126.596211-28.075773t112.303091-69.934197q24.502493-21.439681 45.942173-32.159521t37.774676-15.824526q18.376869-5.104686 34.711864-6.125623l0 106.177468q0 7.14656 2.041874 13.272183 2.041874 5.104686 5.104686 9.188435t11.230309 4.083749q7.14656 0 10.209372-4.083749t5.104686-9.188435 2.041874-12.251246l1.020937-265.443669-788.163509 0 0 266.464606q0 7.14656 2.041874 12.251246t5.615155 8.677966 10.71984 3.57328q6.125623 0 9.698903-3.57328t5.615155-8.677966 2.041874-11.230309l0-109.240279zM913.228315 538.671984l74.528415-155.182453 0-109.240279q-4.083749-15.314058-9.188435-26.544367-5.104686-10.209372-13.272183-18.376869t-22.460618-8.167498-20.418744 8.677966-11.740778 18.887338-12.761715 18.887338-22.460618 8.677966q-13.272183 0-19.908275-8.677966t-12.251246-18.887338-13.782652-18.376869-24.502493-8.167498q-18.376869 1.020937-26.544367 9.188435t-13.782652 18.376869-11.740778 18.376869-20.418744 8.167498-20.929212-8.677966-12.761715-18.376869-13.782652-18.376869-23.992024-8.677966q-13.272183 0-20.418744 8.677966t-13.782652 18.376869-13.782652 18.376869-20.418744 8.677966q-12.251246 0-19.397807-8.677966t-13.272183-18.887338-14.293121-18.887338-23.481555-8.677966-23.992024 8.677966-14.803589 18.887338-12.761715 18.887338-18.887338 8.677966q-13.272183 0-19.908275-8.167498t-11.740778-18.376869-13.272183-18.887338-24.502493-8.677966q-17.355932 0-25.012961 8.677966t-13.272183 18.376869-12.251246 18.376869-21.95015 8.677966-21.95015-8.677966-12.251246-18.376869-13.272183-18.376869-23.992024-8.677966-25.012961 8.167498-14.293121 18.376869-11.740778 17.866401-17.355932 7.657029-18.376869-8.167498-13.782652-17.866401-15.314058-17.866401-21.95015-8.167498q-14.293121 0-22.460618 7.657029t-13.272183 16.845464q-5.104686 11.230309-8.167498 25.52343l0 111.282154 68.402792 155.182453 788.163509 0zM881.579262 141.527418q0-12.251246-8.677966-20.418744t-19.908275-8.167498-19.397807 8.167498-8.167498 19.397807l0 57.172483 56.151545 0 0-56.151545z"  horiz-adv-x="1024" />

    
    <glyph glyph-name="luntai" unicode="&#58941;" d="M638.722092 54.937156q-84.798994-27.631133-170.074387-20.008751t-159.117214 44.781491-130.533283 100.996555-84.322595 148.636439-20.008751 170.074387 44.781491 159.593612 101.472954 131.009682 149.112838 84.322595 170.074387 20.008751 159.117214-45.25789 130.533283-101.472954 84.322595-148.636439 20.008751-170.074387-44.781491-159.117214-101.472954-130.533283-149.112838-84.322595zM835.951213 575.164692q-22.867144 68.601433-68.601433 120.528907t-105.284144 81.940601-128.627688 36.206312-137.679266-16.67396-120.528907-68.601433-81.940601-105.284144-36.682711-128.627688 16.197561-137.679266 68.601433-120.528907 105.760543-81.940601 129.104086-36.206312 137.679266 16.67396 120.528907 68.601433 81.940601 105.284144 36.206312 128.627688-16.67396 137.679266zM602.51578 165.461687q-61.93185-20.008751-123.863699-14.768364t-116.241318 32.395121-95.756167 73.841821-61.455451 108.618936-14.768364 124.340098 32.395121 116.717717 74.31822 95.756167 109.095335 61.455451 123.863699 14.291965 116.241318-32.87152 95.756167-73.841821 61.455451-108.618936 14.768364-124.340098-32.395121-116.241318-74.31822-95.279769-109.095335-61.455451zM504.377619 522.76082q-24.77274 0-41.446699-16.67396t-16.67396-41.446699 16.67396-41.923098 41.446699-17.150358 41.923098 17.150358 17.150358 41.923098-17.150358 41.446699-41.923098 16.67396zM283.328555 618.040588l135.297271-78.12941q4.763988 2.858393 9.527977 6.669584 4.763988 2.858393 9.051578 6.669584t9.051578 6.669584q11.433572 6.669584 21.914347 9.527977 5.716786 1.905595 11.433572 2.858393l0 156.258821q-16.197561-0.952798-33.347919-4.763988-15.244763-3.811191-34.300717-10.004376t-40.970301-18.579555q-24.77274-14.291965-41.446699-28.107532t-27.154734-24.296341q-11.433572-12.38637-19.055954-24.77274zM259.508613 352.210034l136.250069 78.12941q-1.905595 5.716786-2.858393 11.433572-0.952798 4.763988-1.429197 10.480775t-0.476399 11.433572q0 13.339168 2.858393 23.819942 0.952798 5.716786 2.858393 11.433572l-134.344474 78.12941q-6.669584-13.339168-12.38637-30.489526-4.763988-14.291965-9.051578-34.777116t-4.28759-45.25789q-0.952798-28.583931 2.858393-50.021879t8.575179-35.729913q4.763988-17.150358 11.433572-28.583931zM478.652081 198.809606l0.952798 157.211618q-5.716786 0.952798-11.433572 3.811191-10.480775 2.858393-20.008751 9.527977-5.716786 2.858393-10.480775 6.669584t-8.575179 7.622381-8.575179 7.622381l-134.344474-77.176613q8.575179-13.339168 20.008751-26.678335 10.480775-11.433572 25.725538-24.77274t37.15911-26.678335q23.819942-14.291965 44.305092-21.914347t34.777116-11.433572q17.150358-3.811191 30.489526-3.811191zM724.473884 309.334138l-135.297271 78.12941q-4.763988-3.811191-8.575179-7.622381-3.811191-2.858393-8.575179-6.193185t-9.527977-6.193185q-5.716786-3.811191-11.909971-5.716786t-10.957173-3.811191q-5.716786-1.905595-10.480775-2.858393l0-156.258821q15.244763 0.952798 32.395121 4.763988 15.244763 2.858393 34.777116 9.527977t41.446699 19.055954q24.77274 13.339168 40.970301 27.154734t26.678335 25.249139q11.433572 12.38637 19.055954 24.77274zM748.293826 577.070288l-135.297271-78.12941 1.905595-11.433572q0.952798-4.763988 1.429197-10.957173t0.476399-10.957173q0-6.669584-0.952798-13.339168t-1.905595-11.433572q-1.905595-5.716786-2.858393-11.433572l134.344474-77.176613q6.669584 13.339168 12.38637 30.489526 4.763988 14.291965 9.051578 34.777116t4.28759 45.25789q0 27.631133-3.334792 49.54548t-8.09878 36.206312q-4.763988 17.150358-11.433572 28.583931zM530.103156 730.470715l0-157.211618 11.433572-3.811191q4.763988-1.905595 10.004376-4.28759t10.004376-5.240387q4.763988-3.811191 10.004376-7.145983t9.051578-7.145983l8.575179-8.575179 134.344474 78.12941q-8.575179 12.38637-20.008751 25.725538-10.480775 11.433572-25.725538 25.249139t-37.15911 27.154734q-24.77274 14.291965-45.25789 21.437948t-34.777116 10.957173q-17.150358 3.811191-30.489526 4.763988z"  horiz-adv-x="1024" />

    
    <glyph glyph-name="zixingche" unicode="&#58942;" d="M819.360967 490.661372q43.842144 0 82.81294-16.562588t67.711756-45.790684 45.303549-67.711756 16.562588-82.325805-16.562588-82.81294-45.303549-67.711756-67.711756-45.303549-82.81294-16.562588-82.325805 16.562588-67.224622 45.303549-45.303549 67.711756-16.562588 82.81294q0 29.228096 6.819889 53.584843 1.94854 6.819889 3.89708 13.152643t3.89708 13.152643l14.614048 43.842144-317.61198 58.456193q46.764954-28.253826 75.018781-75.99305t28.253826-106.195417q0-43.842144-16.562588-82.81294t-45.790684-67.711756-67.711756-45.303549-82.325805-16.562588-82.325805 16.562588-67.711756 45.303549-45.790684 67.711756-16.562588 82.81294 16.562588 82.325805 45.790684 67.711756 67.711756 45.790684 82.325805 16.562588q4.871349 0 8.768429-0.487135t7.794159-0.487135q17.536858 57.481923 35.073716 117.886655t32.150906 112.041036 25.818152 89.145694 15.101183 50.174899q5.845619 21.433937 20.946802 30.202366t30.202366 6.332754 25.331017-13.152643 6.332754-28.253826q-0.97427-5.845619-4.871349-20.946802t-10.716969-37.50939l79.89013-0.97427-0.97427-34.099446-88.658559 0.97427q-11.691239-40.919335-26.305287-91.581368t-31.176636-105.221147l340.020187-48.713494 33.125176 100.349797-103.272607 0q-6.819889 10.716969-9.742699 21.433937-1.94854 8.768429-0.97427 16.562588t11.691239 12.665508q10.716969 3.89708 37.50939 9.255564t56.994788 8.281294 56.994788 1.461405 37.50939-9.255564 11.691239-18.023993-1.94854-19.972532q-3.89708-10.716969-11.691239-22.408207l-20.459667 0-43.842144-125.680814 87.684289 0 2.92281 0zM360.479854 279.244809q0 40.919335-19.485398 75.505915t-52.610573 54.071978q-18.511128-61.379002-31.663771-105.221147t-17.049723-55.533383q-5.845619-17.536858-21.433937-23.382477t-30.202366-2.92281-24.356747 13.639778-3.89708 27.279557q3.89708 11.691239 17.536858 58.456193t33.125176 111.066766l-2.92281 0q-32.150906 0-59.917597-12.178373t-48.226359-32.638041-32.638041-48.226359-12.178373-59.917597 12.178373-59.917597 32.638041-48.713494 48.226359-33.125176 59.917597-12.178373 59.917597 12.178373 48.226359 33.125176 32.638041 48.713494 12.178373 59.917597zM817.412427 125.310168q31.176636 0 58.943328 12.178373t48.713494 33.125176 33.125176 48.713494 12.178373 59.917597-12.178373 59.917597-33.125176 48.226359-48.713494 32.638041-58.943328 12.178373l-6.819889 0q-46.764954-1.94854-82.81294-27.766691t-52.610573-65.763217l-5.845619-17.536858q-5.845619-20.459667-5.845619-41.893605 0-32.150906 12.178373-59.917597t33.125176-48.713494 48.713494-33.125176 59.917597-12.178373zM543.642591 369.851907q25.331017 0 43.35501-18.023993t18.023993-43.35501-18.023993-43.35501-43.35501-18.023993-42.867875 18.023993-17.536858 43.35501 17.536858 43.35501 42.867875 18.023993z"  horiz-adv-x="1034" />

    
    <glyph glyph-name="touyingyi" unicode="&#58943;" d="M861.184 293.888q0-14.336-9.216-23.04t-21.504-8.704q-16.384 0-24.576 10.752t-8.192 23.04l0 23.552-579.584-1.024 0-23.552q0-12.288-8.192-22.016t-22.528-9.728q-14.336-1.024-23.552 8.192t-10.24 23.552l0 24.576q-39.936 3.072-63.488 22.016t-36.352 43.008-16.384 47.616-3.584 34.816q0 30.72 12.288 57.344t31.232 46.592 42.496 31.744 45.056 11.776l705.536 0q21.504 0 44.544-11.776t41.472-31.744 30.208-46.592 11.776-57.344q0-32.768-13.312-59.904t-33.792-46.592-44.544-30.208-45.568-10.752l0-25.6zM230.4 552.96l-23.552 0 0-165.888 23.552 0 0 165.888zM291.84 552.96l-23.552 0 0-165.888 23.552 0 0 165.888zM351.232 552.96l-22.528 0 0-165.888 22.528 0 0 165.888zM411.648 552.96l-23.552 0 0-165.888 23.552 0 0 165.888zM167.936 552.96l-22.528 0 0-165.888 22.528 0 0 165.888zM770.048 577.536q-22.528 0-42.496-8.704t-34.816-23.552-23.552-34.816-8.704-42.496 8.704-42.496 23.552-34.816 34.816-23.552 42.496-8.704 42.496 8.704 34.816 23.552 23.552 34.816 8.704 42.496-8.704 42.496-23.552 34.816-34.816 23.552-42.496 8.704zM836.608 467.968q0-27.648-19.456-47.104t-47.104-19.456-47.104 19.456-19.456 47.104 19.456 47.104 47.104 19.456 47.104-19.456 19.456-47.104z"  horiz-adv-x="1024" />

    
    <glyph glyph-name="shuzhuo" unicode="&#58944;" d="M992.256 736.256q0-13.312-10.752-21.504t-28.16-8.192l-901.12 0q-11.264 0-22.016 7.168t-10.752 22.528 10.24 22.528 21.504 7.168l902.144 0q17.408 0 28.16-8.192t10.752-21.504zM922.624 198.656l-46.08 0 0 466.944 46.08 0 0-466.944zM830.464 488.448l-346.112 0 0 153.6 346.112 0 0-153.6zM662.528 590.848q-13.312 0-22.016-8.704t-8.704-20.992q0-13.312 8.704-22.016t22.016-8.704q12.288 0 20.992 8.704t8.704 22.016q0 12.288-8.704 20.992t-20.992 8.704zM135.168 633.856l217.088 0q23.552 0 32.768-9.728t9.216-29.184l0-296.96q0-40.96-45.056-41.984l-214.016 0 0-57.344-43.008 0 0 465.92 43.008 0 0-30.72zM363.52 515.072l-212.992 0 0-22.528 212.992 0 0 22.528zM363.52 382.976l-212.992 0 0-22.528 212.992 0 0 22.528z"  horiz-adv-x="1024" />

    
    <glyph glyph-name="lvguo" unicode="&#58945;" d="M178.176 453.632q-8.192-1.024-17.408-1.024l-16.384 0q-8.192 0-15.36 1.024-10.24 1.024-19.456 5.12t-17.92 8.704-16.896 8.704-15.36 5.12q-15.36 2.048-29.184 2.048t-15.872-13.312q-3.072-16.384 6.656-22.528t16.896-9.216q11.264-5.12 28.672-22.528t38.912-24.576q10.24-4.096 23.552-5.632t25.6-1.536q14.336 0 28.672 1.024 3.072-34.816 13.312-68.608 8.192-28.672 23.552-60.416t39.936-55.296q25.6-23.552 67.072-34.816t81.408-15.36q47.104-4.096 98.304-3.072 53.248-2.048 102.4 3.072 41.984 4.096 83.456 15.872t65.024 37.376q26.624 29.696 41.984 62.464t22.528 59.392q8.192 31.744 9.216 60.416l63.488 0q7.168 0 15.872 4.096t16.896 9.728 15.872 11.776 11.776 10.24q9.216 7.168 18.432 13.312t20.48 11.264q10.24 4.096 10.24 16.896t-11.264 15.872q-17.408 5.12-37.376 0.512t-37.376-15.872q-8.192-5.12-19.968-7.68t-23.552-3.584-22.528-0.512-16.896 0.512l-32.768 0q-30.72 0-77.312 0.512t-104.96 0.512l-119.808 0-322.56 0zM547.84 670.72q5.12-13.312 6.656-27.648t0.512-25.6q-1.024-14.336-3.072-27.648 18.432 0 38.912-1.024 17.408-1.024 40.96-2.56t50.176-5.632q52.224-7.168 80.896-20.48t43.008-27.648q13.312-13.312 15.36-22.528 1.024-4.096 0-8.192l-650.24 0q-2.048 13.312 14.336 30.72t62.464 34.816q23.552 8.192 56.32 13.312t62.464 7.168q34.816 3.072 72.704 3.072-2.048 14.336-2.048 28.672 0 12.288 1.536 26.112t7.68 25.088q5.12 11.264 13.824 17.408t16.896 8.192q9.216 3.072 18.432 3.072 17.408 1.024 31.744-5.632t20.48-23.04zM495.616 666.624q-10.24 0-17.408-7.168t-7.168-18.432q0-10.24 7.168-17.408t17.408-7.168q11.264 0 18.432 7.168t7.168 17.408q0 11.264-7.168 18.432t-18.432 7.168z"  horiz-adv-x="1024" />

    
    <glyph glyph-name="neiyi" unicode="&#58946;" d="M515.056716 646.368159q21.397015 24.453731 48.907463 42.79403 23.434826 16.302488 56.549254 28.529353t75.908458 10.189055q23.434826-2.037811 41.265672-9.170149t30.057711-15.283582q13.245771-10.189055 23.434826-22.41592l0 186.459701q0 14.264677 8.151244 21.397015t16.302488 7.132338q9.170149 0 16.302488-6.113433t7.132338-20.378109l0-231.291542q0-45.850746-18.849751-79.474627t-48.39801-53.492537-66.738308-25.98209-73.870647 3.056716q-38.718408 9.170149-61.643781 29.548259t-35.152239 40.756219q-14.264677 24.453731-19.359204 51.964179-3.056716-9.170149-6.113433-17.321393-2.037811-7.132338-5.60398-14.264677t-5.60398-12.226866q-2.037811-3.056716-10.189055-17.321393t-25.98209-29.548259-46.869652-26.491542-72.851741-8.151244q-48.907463 3.056716-78.455721 21.906468t-45.341294 42.79403-20.887562 47.379104-5.094527 35.661692l0 240.461692q0 14.264677 7.132338 21.397015t18.340299 6.113433q9.170149 0 15.793035-6.622886t6.622886-18.849751q-1.018905-6.113433-0.509453-36.171144t0.509453-63.681592l0-86.606965q11.20796 13.245771 27.510448 23.434826 14.264677 8.151244 35.152239 15.283582t50.435821 6.113433q33.623881-1.018905 63.172139-13.755224t51.964179-28.0199q26.491542-18.340299 46.869652-39.737313zM803.406965 309.110448q20.378109 0 22.41592-10.189055t-1.018905-18.340299q-5.094527-15.283582-35.152239-29.038806t-83.040796-38.208955q-27.510448-13.245771-51.964179-40.246766t-43.812935-57.058706-31.58607-57.568159-14.264677-39.737313q-6.113433-33.623881-21.397015-43.812935t-28.529353-10.189055q-6.113433 0-13.245771 1.528358t-13.755224 6.622886-12.226866 16.302488-8.660697 29.548259-17.830846 45.850746-34.133333 55.530348-41.775124 52.473632-40.756219 35.661692q-17.321393 10.189055-35.661692 17.830846t-35.152239 14.774129-29.548259 13.755224-17.830846 13.755224q-13.245771 17.321393-9.679602 29.038806t21.906468 11.717413l289.369154 0 287.331343 0z"  horiz-adv-x="1024" />

    
    <glyph glyph-name="yundongxie" unicode="&#58947;" d="M865.28 608.256q19.456 6.144 33.792 3.072t25.088-12.8 17.408-25.6 10.752-35.328l7.168-38.912q5.12-28.672 9.728-65.536t6.656-77.312 0-75.264-10.752-58.88-27.136-29.184q-54.272-14.336-88.576-12.8t-61.952 8.192-55.296 15.36-68.608 9.728q-43.008 1.024-98.304-10.24t-121.344-22.016-141.312-12.8-158.208 18.432q-10.24 3.072-25.088 6.656t-29.696 10.752-27.648 17.92-16.896 27.136q-8.192 29.696 2.048 51.712t27.648 32.256q22.528 12.288 45.056 13.824t53.248 4.096 75.264 13.312 112.128 41.472q53.248 24.576 94.208 57.344t70.144 65.536 47.104 61.44 26.112 44.032q19.456 39.936 37.888 53.76t47.104 11.776q31.744-2.048 51.2-20.992t37.376-38.4 38.912-31.744 54.784 0zM565.248 258.048q28.672 9.216 61.44 14.848t62.464 5.632q36.864 0 64-9.216t48.64-18.432q9.216-4.096 16.896-2.56t10.752 7.168-0.512 14.848-15.872 20.48q-9.216 7.168-21.504 20.48t-27.136 26.624-31.232 22.528-32.768 9.216-33.28-6.656-33.792-17.408-34.816-23.552-36.352-25.088q-14.336-9.216-18.944-17.92t-2.56-13.824 9.216-7.68 15.36 0.512zM621.568 575.488q-12.288 0-20.48-8.704t-8.192-20.992q0-11.264 8.192-19.968t20.48-8.704 20.48 8.704 8.192 19.968q0 12.288-8.192 20.992t-20.48 8.704zM560.128 494.592q-12.288 0-20.992-8.704t-8.704-20.992 8.704-20.992 20.992-8.704 20.992 8.704 8.704 20.992-8.704 20.992-20.992 8.704z"  horiz-adv-x="1024" />

    
    <glyph glyph-name="qunzi" unicode="&#58948;" d="M238.592 614.4q-5.12 10.24-6.144 21.504-1.024 9.216 2.048 18.944t14.336 15.872q7.168 4.096 39.424 5.632t73.728 2.56 82.432 1.024l66.56 0q24.576 0 64.512-0.512t79.36-1.024 70.656-1.536 40.448-3.072q20.48-4.096 23.04-19.968t-3.584-39.424l-546.816 0zM243.712 558.08q1.024-22.528 1.024-45.056 0-19.456-1.536-41.984t-6.656-41.984q-6.144-24.576-20.48-64t-33.28-81.92-40.448-80.896-41.984-61.952q-13.312-15.36-25.6-28.672t-19.968-25.6-9.728-23.552 4.096-23.552q8.192-15.36 24.064-16.896t33.28 2.56 34.304 10.752 28.16 7.68q14.336 1.024 25.6 1.536t24.064-3.072 28.672-12.288 39.424-25.088q21.504-15.36 41.984-18.944t37.376-1.024 30.208 8.192 19.456 7.68q15.36 6.144 31.744 15.872t36.864 15.36 46.592 1.536 60.928-25.6q30.72-19.456 56.832-23.04t46.592 1.024 35.328 14.336 23.04 17.92q6.144 6.144 18.944 13.824t30.208 11.264 40.96 2.048 51.2-12.8q28.672-12.288 48.128-9.216t28.16 14.336 6.144 27.648-16.896 31.744q-17.408 17.408-36.352 42.496t-37.888 55.808-36.352 65.024-30.72 71.168q-12.288 32.768-22.016 61.44t-15.36 55.808-7.168 53.76 2.56 56.32l-533.504 0z"  horiz-adv-x="1024" />

    
    </font>
</defs>
</svg>
